<svg xmlns="http://www.w3.org/2000/svg" viewBox="0 0 1059 1024">
  <defs>
    <style>
      .cls-1 {
        fill: #b8b5b5;
      }

      .cls-2 {
        fill: #fff;
        opacity: 0.51;
      }

      .cls-3, .cls-4, .cls-5, .cls-6 {
        fill: #8a2e41;
      }

      .cls-3 {
        opacity: 0.81;
      }

      .cls-4 {
        opacity: 0.5;
      }

      .cls-5 {
        opacity: 0.25;
      }

      .cls-6 {
        opacity: 0.15;
      }

      .cls-7, .cls-8 {
        fill: #b9ffd6;
      }

      .cls-7 {
        opacity: 0.58;
      }
    </style>
  </defs>
  <title>101617</title>
  <g id="back">
    <rect class="cls-1" x="-0.25" y="0.5" width="1059.5" height="1024"/>
  </g>
  <g id="tri1">
    <polygon class="cls-2" points="634.73 92.46 824.57 805.42 134.04 636.97 634.73 92.46"/>
    <polygon points="535.66 510.58 529.42 514.92 528.75 507.38 535.66 510.58"/>
  </g>
  <g id="shapos1">
    <polygon class="cls-3" points="536.15 509.34 538.08 509.94 537.12 510.66 536.15 509.34"/>
    <polygon class="cls-3" points="536.94 508.81 544.16 510.6 541.63 507.85 538.38 508.33 535.61 507.85 536.94 508.81"/>
    <polygon class="cls-3" points="538.62 510.12 544.52 511.44 541.51 514.55 542.48 512.27 541.15 511.2 536.82 511.56 538.62 510.12"/>
    <polygon class="cls-3" points="541.27 512.03 536.58 513.95 539.59 511.8 541.27 512.03"/>
    <polygon class="cls-3" points="541.51 512.51 537.54 514.19 539.11 515.14 539.47 514.07 541.51 512.51"/>
    <polygon class="cls-3" points="540.07 514.43 541.27 513.47 539.83 516.94 540.07 514.43"/>
    <polygon class="cls-3" points="539.23 515.98 536.7 514.43 537.54 517.3 537.54 515.5 539.23 515.98"/>
    <polygon class="cls-3" points="536.34 512.39 538.62 511.68 535.61 513.95 536.34 512.39"/>
    <polygon class="cls-3" points="535.61 514.55 536.09 516.22 535.25 515.74 535.61 514.55"/>
    <polygon class="cls-3" points="536.34 516.7 538.14 519.21 538.62 516.7 538.74 521.13 536.34 516.7"/>
    <polygon class="cls-3" points="539.47 518.49 541.15 517.3 541.15 515.38 543.08 514.19 542.24 516.94 542.12 515.38 541.63 516.1 542.36 518.73 540.91 517.9 540.67 518.97 540.43 518.13 539.47 520.17 539.47 518.49"/>
    <polygon class="cls-3" points="545.85 512.27 543.08 513.47 546.93 513.11 545.85 512.27"/>
    <polygon class="cls-3" points="544.81 512.09 545.12 511.48 544.81 510.72 545.97 511.94 545.35 511.71 544.81 512.09"/>
    <polygon class="cls-3" points="543.32 515.5 542.96 516.7 545.73 514.55 544.16 515.14 543.44 513.83 543.32 515.5"/>
    <polygon class="cls-3" points="542.6 517.54 543.08 519.81 541.27 518.85 543.92 521.01 542.6 517.54"/>
    <polygon class="cls-3" points="543.2 517.3 546.93 514.43 545.37 516.34 543.2 517.3"/>
    <polygon class="cls-3" points="544.28 514.43 544.28 513.77 546.69 513.96 544.28 514.43"/>
    <polygon class="cls-3" points="544.76 517.54 543.44 518.02 544.28 520.41 543.92 518.25 544.76 517.54"/>
    <polygon class="cls-3" points="544.46 519.14 545.13 518.48 544.6 519.93 544.46 519.14"/>
    <polygon class="cls-3" points="544.4 518.49 546.45 515.86 545.73 517.9 544.4 518.49"/>
    <polygon class="cls-3" points="540.31 519.57 541.51 519.57 541.15 521.13 542.12 523.04 540.07 521.25 540.67 520.53 540.31 519.57"/>
    <polygon class="cls-3" points="541.75 520.89 542 519.93 543.08 521.6 541.75 520.89"/>
    <polygon class="cls-3" points="542 521.6 542.84 521.96 542.12 522.2 542 521.6"/>
    <polygon class="cls-3" points="535.37 516.94 534.77 519.93 536.7 518.97 533.33 523.04 535.37 516.94"/>
    <polygon class="cls-3" points="536.34 520.17 537.9 520.41 538.74 522.92 537.42 521.13 535.61 521.25 536.82 520.65 536.34 520.17"/>
    <polygon class="cls-3" points="534.29 522.41 535.67 522.14 534.81 526.63 534.29 522.41"/>
    <polygon class="cls-3" points="537.42 524.6 536.09 521.84 537.54 522.2 537.18 523.04 537.42 524.6"/>
    <polygon class="cls-3" points="534.05 515.38 535.37 516.34 531.28 517.3 534.17 516.1 534.05 515.38"/>
    <polygon class="cls-3" points="532.84 515.98 529.11 518.13 529.95 516.58 532.84 515.98"/>
    <polygon class="cls-3" points="534.41 517.18 531.88 517.66 533.2 518.13 533.57 520.17 533.93 517.66 534.41 517.18"/>
    <polygon class="cls-3" points="534.29 517.9 535.01 516.7 534.05 519.33 534.29 517.9"/>
    <polygon class="cls-3" points="532.36 518.61 532.96 521.25 532.72 525.07 531.52 522.2 532.24 521.01 532.36 518.61"/>
    <polygon class="cls-3" points="533.2 524.24 533.69 523.16 533.93 523.64 533.2 524.24"/>
    <polygon class="cls-3" points="533.93 524.12 533.2 525.55 533.2 524.6 533.93 524.12"/>
    <polygon class="cls-3" points="534.05 524.83 533.2 526.87 534.29 525.79 534.05 524.83"/>
    <polygon class="cls-3" points="534.41 526.27 534.53 526.63 533.69 526.87 534.41 526.27"/>
    <polygon class="cls-3" points="536.34 524.36 535.73 526.39 536.58 525.31 537.78 525.55 536.34 524.36"/>
    <polygon class="cls-3" points="537.78 523.16 538.26 522.8 538.98 524.24 537.78 523.16"/>
    <polygon class="cls-3" points="537.78 523.88 538.62 524.48 537.9 525.19 537.78 523.88"/>
    <polygon class="cls-3" points="538.74 525.19 540.55 523.16 541.63 523.16 538.74 525.19"/>
    <polygon class="cls-3" points="539.35 523.64 540.19 522.56 539.59 521.84 539.71 522.68 539.35 523.64"/>
    <polygon class="cls-3" points="539.24 522.68 538.62 521.82 539.24 521.21 538.99 520.11 539.36 520.72 539.98 520.23 539.86 521.7 539.61 521.09 539.12 521.82 539.24 522.68"/>
    <polygon class="cls-3" points="531.16 518.13 528.03 520.77 521.64 520.41 526.94 521.6 528.75 523.16 530.43 522.2 528.27 521.84 528.75 521.01 531.16 518.13"/>
    <polygon class="cls-3" points="530.06 521.58 530.92 520.81 530.92 523.22 531.68 520.05 531.39 518.73 530.06 521.58"/>
    <polygon class="cls-3" points="530.31 518.13 527.06 519.21 527.3 520.17 528.15 519.21 530.31 518.13"/>
    <polygon class="cls-3" points="535.37 518.49 536.34 517.54 536.09 518.85 535.85 518.37 535.37 518.49"/>
    <polygon class="cls-3" points="530.31 523.04 530.31 525.31 529.71 524.12 527.18 525.07 530.31 523.04"/>
    <polygon class="cls-3" points="531.28 523.16 530.68 524.6 532.72 526.63 531.28 523.16"/>
    <polygon class="cls-3" points="530.68 525.31 532.24 526.99 530.92 526.39 528.15 526.63 530.19 526.15 530.68 525.31"/>
    <polygon class="cls-3" points="529.11 525.07 530.07 525.55 527.18 526.39 529.11 525.07"/>
    <polygon class="cls-3" points="528.15 525.07 525.62 526.03 527.06 525.79 528.15 525.07"/>
    <polygon class="cls-3" points="524.29 521.6 526.82 522.2 525.62 525.19 526.22 522.68 524.29 521.6"/>
    <polygon class="cls-3" points="527.18 522.68 526.34 524.6 527.18 523.88 528.63 523.64 527.18 523.16 527.18 522.68"/>
    <polygon class="cls-3" points="525.38 523.04 525.02 525.67 522.13 521.13 525.38 523.04"/>
    <polygon class="cls-3" points="523.69 525.19 519.24 517.54 519 521.37 519.84 519.93 523.69 525.19"/>
    <polygon class="cls-3" points="520.08 521.01 519.48 521.84 520.08 521.6 521.04 522.32 520.08 521.01"/>
    <polygon class="cls-3" points="520.2 522.2 519.84 522.32 522.13 523.88 520.2 522.2"/>
    <polygon class="cls-3" points="518.75 514.79 521.52 519.57 524.77 519.57 521.76 518.73 518.75 514.79"/>
    <polygon class="cls-3" points="520.44 515.5 521.04 516.34 521.52 515.5 521.76 517.78 522.37 514.19 521.04 515.14 520.2 514.19 520.44 515.5"/>
    <polygon class="cls-3" points="519.84 515.26 519.48 511.8 519.24 514.07 517.43 512.75 519.84 515.26"/>
    <polygon class="cls-3" points="519.84 517.3 517.55 516.94 516.95 515.38 518.63 515.38 518.39 516.34 519.84 517.3"/>
    <polygon class="cls-3" points="518.15 517.78 518.15 520.41 517.43 518.02 515.99 515.98 518.15 517.78"/>
    <polygon class="cls-3" points="516.71 515.98 515.38 513.83 515.99 511.8 515.99 513.47 516.71 512.03 516.23 514.19 516.71 515.98"/>
    <polygon class="cls-3" points="516.95 514.19 517.43 515.14 518.15 514.19 516.95 514.19"/>
    <polygon class="cls-3" points="516.95 512.51 516.71 513.47 517.55 513.71 516.95 512.51"/>
    <polygon class="cls-3" points="524.77 518.61 526.22 520.17 525.5 515.98 527.06 518.13 526.34 515.38 524.77 514.79 525.14 516.94 523.69 516.34 525.62 518.49 524.77 518.61"/>
    <polygon class="cls-3" points="524.29 518.02 522.49 515.98 522.97 517.54 521.88 518.13 523.33 518.73 522.85 518.13 523.33 517.78 524.29 518.02"/>
    <polygon class="cls-3" points="523.69 518.13 524.53 518.85 524.05 518.85 523.69 518.13"/>
    <polygon class="cls-3" points="527.79 518.13 527.18 517.18 529.35 516.94 527.79 518.13"/>
    <polygon class="cls-3" points="529.71 515.98 528.75 516.7 527.91 515.98 527.18 516.7 526.7 515.38 528.87 515.98 529.71 515.98"/>
    <polygon class="cls-3" points="528.39 515.38 525.98 514.79 524.53 512.27 526.46 514.55 528.39 515.38"/>
    <polygon class="cls-3" points="525.02 514.43 523.09 511.2 521.04 514.43 522.37 513.47 522.97 512.03 523.69 513.83 525.02 514.43"/>
    <polygon class="cls-3" points="523.09 513.47 523.09 515.5 523.69 515.14 524.29 515.98 524.29 514.67 523.45 514.55 523.09 513.47"/>
    <polygon class="cls-3" points="520.2 513.11 520.68 513.83 521.04 510.12 520.2 513.11"/>
    <polygon class="cls-3" points="519.96 511.8 519.48 508.81 520.2 510.24 521.04 508.69 519.96 511.8"/>
    <polygon class="cls-3" points="521.28 512.75 521.76 507.37 521.88 510 522.85 508.69 521.88 510.96 523.33 509.52 521.88 511.8 521.28 513.47 521.28 512.75"/>
    <polygon class="cls-3" points="523.33 510.36 526.82 513.95 525.38 512.03 525.02 508.92 524.53 510.6 523.33 510.36"/>
    <polygon class="cls-3" points="524.05 510 523.09 507.85 524.53 507.85 524.05 510"/>
    <polygon class="cls-3" points="522.13 508.21 524.05 506.77 521.64 506.41 522.25 507.13 522.13 508.21"/>
    <polygon class="cls-3" points="518.63 512.51 518.63 507.37 517.43 510.6 518.15 510.6 518.63 512.51"/>
    <polygon class="cls-3" points="518.03 512.51 517.67 511.2 517.07 511.2 516.71 508.92 515.99 510.6 518.03 512.51"/>
    <polygon class="cls-3" points="515.14 512.03 515.62 510.96 515.14 509.16 515.14 512.03"/>
    <polygon class="cls-3" points="515.74 509.64 515.74 506.41 517.07 507.85 515.74 509.64"/>
    <polygon class="cls-3" points="525.62 509.64 525.38 504.98 526.46 508.69 525.62 509.64"/>
    <polygon class="cls-3" points="525.98 510 526.1 512.27 525.5 510.96 525.98 510"/>
    <polygon class="cls-3" points="524.77 506.77 523.69 505.69 522.13 506.05 523.81 504.62 525.02 505.22 524.29 505.69 524.77 506.77"/>
    <polygon class="cls-3" points="521.04 506.77 518.75 504.14 520.2 508.92 521.04 506.77"/>
    <polygon class="cls-3" points="518.63 505.69 517.67 508.21 518.39 504.62 518.63 505.69"/>
    <polygon class="cls-3" points="516.35 506.53 517.67 506.29 516.35 504.62 516.35 506.53"/>
    <polygon class="cls-3" points="517.43 504.62 517.79 505.1 518.39 503.18 517.43 504.62"/>
    <polygon class="cls-3" points="516.71 504.14 517.91 502.11 518.39 502.7 516.71 504.14"/>
    <path class="cls-3" d="M526.7,506.41c0-.36-1-4.55-1-4.55l-4.7,3.47,2.77-3-.12-2.51,1.69,1.08,4.33-.36-2.29,2.15Z"/>
    <polygon class="cls-3" points="521.88 503.54 523.33 500.91 519.84 500.55 522.13 501.99 521.88 503.54"/>
    <polygon class="cls-3" points="521.28 502.7 521.04 504.62 519.24 504.02 519.84 502.94 520.2 503.66 520.56 502.7 520.8 504.14 521.28 502.7"/>
    <polygon class="cls-3" points="520.92 502.7 521.28 501.87 519 500.55 520.56 501.99 520.92 502.7"/>
    <polygon class="cls-3" points="519.9 502.52 518.63 501.03 518.95 502.52 519.9 502.52"/>
    <polygon class="cls-3" points="527.06 507.85 527.79 504.14 529.11 503.54 527.06 507.85"/>
    <polygon class="cls-3" points="528.39 506.53 530.07 505.81 529.11 504.98 528.39 506.53"/>
    <polygon class="cls-3" points="529.35 504.38 530.68 502.11 528.03 503.06 532.24 500.79 529.35 504.38"/>
    <polygon class="cls-3" points="529.95 501.27 534.05 499.36 531.4 500.31 534.29 498.52 531.28 500.07 530.8 498.76 530.55 500.55 529.95 501.27"/>
    <polygon class="cls-3" points="519.72 499.83 522.73 500.07 522.73 497.32 522.13 499.59 519.72 499.83"/>
    <polygon class="cls-3" points="520.56 499.36 521.16 498.52 522.13 498.16 521.76 499.12 520.56 499.36"/>
    <polygon class="cls-3" points="523.57 499 523.57 496.84 525.62 500.07 523.57 499"/>
    <polygon class="cls-3" points="525.38 498.28 526.7 500.31 526.46 498.76 527.79 497.92 526.1 498.4 524.77 497.32 525.38 498.28"/>
    <polygon class="cls-3" points="526.34 497.44 524.05 496.6 526.22 496.6 527.79 495.29 526.34 497.44"/>
    <polygon class="cls-3" points="526.82 497.68 529.71 494.93 528.75 497.44 526.82 497.68"/>
    <polygon class="cls-3" points="527.06 499 527.79 498.64 527.42 500.55 527.06 499"/>
    <polygon class="cls-3" points="528.03 499.59 530.07 499.59 528.03 500.55 528.03 499.59"/>
    <polygon class="cls-3" points="528.27 499 529.95 497.2 531.88 497.92 530.07 498.04 530.07 499 529.23 498.4 528.27 499"/>
    <polygon class="cls-3" points="529.71 496.36 532.72 496.36 530.31 494.93 531.04 496 529.71 496.36"/>
    <polygon class="cls-3" points="530.92 496.96 536.09 497.32 532.96 498.4 532.36 497.68 530.92 496.96"/>
    <polygon class="cls-3" points="533.08 500.79 535.25 504.38 534.53 501.63 533.08 500.79"/>
    <polygon class="cls-3" points="532.24 504.38 532.6 501.27 529.95 504.62 531.64 503.18 532.24 504.38"/>
    <polygon class="cls-3" points="533.08 501.75 532.72 505.57 533.45 503.9 533.08 501.75"/>
    <polygon class="cls-3" points="534.05 503.3 536.09 506.89 533.45 505.81 534.05 503.3"/>
    <polygon class="cls-3" points="530.92 505.69 530.31 504.98 531.52 504.02 530.92 505.1 530.92 505.69"/>
    <polygon class="cls-3" points="531.76 504.62 531.4 505.69 532.24 505.69 531.76 504.62"/>
    <polygon class="cls-3" points="536.34 504.62 535.61 502.35 536.82 503.3 540.07 503.06 536.34 504.62"/>
    <polygon class="cls-3" points="535.85 505.1 536.82 506.77 536.82 505.57 535.85 505.1"/>
    <polygon class="cls-3" points="536.82 504.86 538.86 504.14 538.38 505.1 536.82 504.86"/>
    <polygon class="cls-3" points="537.42 505.69 537.42 506.89 538.86 505.69 537.42 505.69"/>
    <polygon class="cls-3" points="539.23 505.1 539.83 503.66 541.03 503.66 539.23 505.1"/>
    <polygon class="cls-3" points="540.55 503.3 542 502.7 541.27 503.3 540.55 503.3"/>
    <polygon class="cls-3" points="541.51 502.58 544.04 501.27 542 501.87 541.51 502.58"/>
    <polygon class="cls-3" points="540.91 502.7 542.6 499.59 539.83 502.35 540.91 502.7"/>
    <polygon class="cls-3" points="539.47 502.7 537.18 502.82 538.26 501.87 539.47 502.7"/>
    <polygon class="cls-3" points="536.46 502.23 539.71 499.36 535.13 501.27 536.46 502.23"/>
    <polygon class="cls-3" points="534.65 500.91 533.33 500.31 534.77 499.95 534.65 500.91"/>
    <polygon class="cls-3" points="535.37 500.55 535.61 498.16 536.58 500.07 535.37 500.55"/>
    <polygon class="cls-3" points="537.18 499.71 536.34 497.8 537.9 498.88 536.34 496.36 541.87 498.88 538.62 498.16 538.5 499.36 537.3 499.12 537.18 499.71"/>
    <polygon class="cls-3" points="540.55 499.12 542.24 499.24 540.79 500.31 540.55 499.12"/>
    <polygon class="cls-3" points="539.95 500.07 538.5 501.27 539.95 501.75 539.59 501.15 539.95 500.07"/>
    <polygon class="cls-3" points="532.48 495.29 534.41 496.72 534.29 495.29 532.48 495.29"/>
    <polygon class="cls-3" points="535.01 495.29 536.58 495.77 535.01 496.72 535.01 495.29"/>
    <polygon class="cls-3" points="543.44 502.58 546.21 509.16 545.49 503.42 543.44 502.58"/>
    <polygon class="cls-3" points="543.8 502.23 544.52 501.75 545.25 502.94 543.8 502.23"/>
    <polygon class="cls-3" points="546.45 505.57 546.69 510.48 547.41 510.96 546.45 505.57"/>
    <polygon class="cls-3" points="537.42 507.37 542.84 502.7 546.69 512.03 542.36 505.1 537.42 507.37"/>
    <polygon class="cls-3" points="538.86 507.39 541.89 506.17 544.1 508.98 541.54 506.91 538.86 507.39"/>
  </g>
  <g id="shapos2">
    <polygon class="cls-4" points="542.61 499.47 548.87 498.4 547.21 501.78 542.61 499.47"/>
    <polygon class="cls-4" points="544.02 496.85 566.86 491.56 555.8 487.46 547.38 493.44 538.93 496.05 544.02 496.85"/>
    <polygon class="cls-4" points="550.65 498.13 569.09 493.39 565.15 506.4 564.56 498.66 559.29 497.53 547.66 504.73 550.65 498.13"/>
    <polygon class="cls-4" points="560.84 499.71 550.45 511.77 555.77 501.44 560.84 499.71"/>
    <polygon class="cls-4" points="562.21 500.7 553.5 511.07 559.27 511.52 558.72 507.98 562.21 500.7"/>
    <polygon class="cls-4" points="560.93 508.13 562.92 503.73 563.89 515.51 560.93 508.13"/>
    <polygon class="cls-4" points="560.82 513.69 551.48 512.94 558 519.78 555.4 514.76 560.82 513.69"/>
    <polygon class="cls-4" points="547.53 507.76 552.9 502.48 547.75 513.15 547.53 507.76"/>
    <polygon class="cls-4" points="548.62 514.83 552.39 518.83 549.34 518.69 548.62 514.83"/>
    <polygon class="cls-4" points="553.76 519.83 562.45 524.29 560.17 516.56 566.91 528.79 553.76 519.83"/>
    <polygon class="cls-4" points="565.13 520.39 568.12 514.63 565.35 509.26 569.02 503.16 570.64 512.08 568.05 507.89 567.74 510.59 573.57 516.93 568.31 516.65 569.19 520.01 567.3 518.01 567.55 525.08 565.13 520.39"/>
    <polygon class="cls-4" points="574.01 493.85 567.98 501.15 578.26 494.64 574.01 493.85"/>
    <polygon class="cls-4" points="570.86 494.82 570.83 492.67 568.87 490.96 573.87 492.74 571.81 492.98 570.86 494.82"/>
    <polygon class="cls-4" points="571.6 506.51 572.32 510.37 576.96 500.39 573.44 504.3 569.51 501.64 571.6 506.51"/>
    <polygon class="cls-4" points="572.51 513.24 577.15 518.92 570.71 518.81 581.24 521.07 572.51 513.24"/>
    <polygon class="cls-4" points="573.86 511.71 580.16 498.33 578.54 505.93 573.86 511.71"/>
    <polygon class="cls-4" points="572.74 502.11 571.79 500.27 578.81 497.36 572.74 502.11"/>
    <polygon class="cls-4" points="578.59 510.14 575.57 513.37 581.39 518.88 577.26 513.36 578.59 510.14"/>
    <polygon class="cls-4" points="580.06 515.06 580.97 512.27 581.58 517.09 580.06 515.06"/>
    <polygon class="cls-4" points="578.96 513.34 580.89 503.04 581.81 509.77 578.96 513.34"/>
    <polygon class="cls-4" points="569.04 522.2 572.42 520.48 573.66 525.36 579.12 529.34 570.79 527.24 571.44 524.37 569.04 522.2"/>
    <polygon class="cls-4" points="575 523.83 574.29 520.8 579.75 523.95 575 523.83"/>
    <polygon class="cls-4" points="576.71 525.49 579.59 525.29 577.91 527 576.71 525.49"/>
    <polygon class="cls-4" points="551.4 521.87 554.04 531.11 558.06 525.68 554.49 541.89 551.4 521.87"/>
    <polygon class="cls-4" points="558.77 529.55 563.51 527.99 569.5 533.82 563.2 530.68 558.31 533.6 560.82 530.2 558.77 529.55"/>
    <polygon class="cls-4" points="556.29 538.76 559.77 536.03 563.84 549.83 556.29 538.76"/>
    <polygon class="cls-4" points="568.21 540.4 560.52 534.59 565.09 533.53 565.29 536.39 568.21 540.4"/>
    <polygon class="cls-4" points="545.44 519.41 550.54 520.2 540.45 528.72 546.82 521.25 545.44 519.41"/>
    <polygon class="cls-4" points="542.93 522.8 535.59 534.16 535.7 528.6 542.93 522.8"/>
    <polygon class="cls-4" points="549.05 523.92 542.65 528.87 547.06 528.32 551.01 533.5 548.39 525.95 549.05 523.92"/>
    <polygon class="cls-4" points="549.75 526.1 550.04 521.72 551.15 530.47 549.75 526.1"/>
    <polygon class="cls-4" points="545.39 530.86 550.88 537.38 555.75 548.45 548.22 542.12 548.51 537.74 545.39 530.86"/>
    <polygon class="cls-4" points="555.88 545.42 555.68 541.71 557.04 542.71 555.88 545.42"/>
    <polygon class="cls-4" points="557.74 544.05 557.79 549.1 556.4 546.42 557.74 544.05"/>
    <polygon class="cls-4" points="559.11 545.89 559.69 552.79 561.17 548.23 559.11 545.89"/>
    <polygon class="cls-4" points="562.2 549.39 563.06 550.23 561.04 552.1 562.2 549.39"/>
    <polygon class="cls-4" points="564.83 541.28 566.09 547.84 566.89 543.62 570.61 542.57 564.83 541.28"/>
    <polygon class="cls-4" points="567.15 535.87 567.98 534.17 572.08 537.16 567.15 535.87"/>
    <polygon class="cls-4" points="568.19 537.88 571.41 538.35 570.43 541.39 568.19 537.88"/>
    <polygon class="cls-4" points="572.79 540.19 574.91 531.91 577.95 530.37 572.79 540.19"/>
    <polygon class="cls-4" points="572.23 534.97 573.03 530.75 570.31 529.6 571.86 531.78 572.23 534.97"/>
    <polygon class="cls-4" points="570.55 532.44 567.58 530.92 568.42 528.32 566.13 525.59 568.06 526.78 569.08 524.52 570.86 528.82 569.28 527.45 568.96 530.22 570.55 532.44"/>
    <polygon class="cls-4" points="541.32 531.24 536.36 543.09 517.95 551.19 534.53 546.98 541.84 548.76 545.18 543.67 538.59 545.76 538.73 542.73 541.32 531.24"/>
    <polygon class="cls-4" points="543.22 542.46 544.52 539.09 548 545.83 545.56 535.85 542.85 532.58 543.22 542.46"/>
    <polygon class="cls-4" points="538.96 532.45 531.41 540.1 533.47 542.44 534.44 538.56 538.96 532.45"/>
    <polygon class="cls-4" points="553.65 526.23 554.97 522.17 556.2 526.21 554.83 525.21 553.65 526.23"/>
    <polygon class="cls-4" points="546.05 546.19 549.34 552.56 545.93 550.07 540.22 556.36 546.05 546.19"/>
    <polygon class="cls-4" points="548.93 545.15 549.32 550.03 558 552.81 548.93 545.15"/>
    <polygon class="cls-4" points="550.36 552.04 557.16 554.5 552.59 554.72 545.17 559.34 550.22 555.08 550.36 552.04"/>
    <polygon class="cls-4" points="545.62 553.61 549.01 553.57 542.13 560.04 545.62 553.61"/>
    <polygon class="cls-4" points="542.92 554.98 537.22 561.27 540.92 558.54 542.92 554.98"/>
    <polygon class="cls-4" points="527.11 550.76 535.06 548.83 536.01 558.93 534.06 551.03 527.11 550.76"/>
    <polygon class="cls-4" points="536.76 549.65 537.17 556.22 538.49 553 542.2 550.27 537.46 550.99 536.76 549.65"/>
    <polygon class="cls-4" points="532.22 553.24 535.01 561.13 520.34 552.51 532.22 553.24"/>
    <polygon class="cls-4" points="530.61 561.68 507.05 546.58 511.91 557.65 512.2 552.43 530.61 561.68"/>
    <polygon class="cls-4" points="514.43 555.1 513.96 558.31 515.3 556.78 519.03 557.41 514.43 555.1"/>
    <polygon class="cls-4" points="516.5 558.28 515.66 559.13 524.32 560.23 516.5 558.28"/>
    <polygon class="cls-4" points="501.72 539.56 516.4 549.02 525.51 544.38 515.87 546.33 501.72 539.56"/>
    <polygon class="cls-4" points="507.48 539.17 510.38 540.65 510.52 537.62 514.48 543.64 510.98 532.73 508.65 537.3 504.91 535.82 507.48 539.17"/>
    <polygon class="cls-4" points="505.45 539.36 499.42 530.15 502.03 536.86 495.07 535.75 505.45 539.36"/>
    <polygon class="cls-4" points="508.39 545.05 501.46 547.32 497.52 543.82 502.25 541.41 502.96 544.44 508.39 545.05"/>
    <polygon class="cls-4" points="504.36 548.8 508.17 556.18 502.68 550.5 495.69 546.87 504.36 548.8"/>
    <polygon class="cls-4" points="497.72 545.84 490.89 541.69 489.63 535.14 492.06 539.83 492 534.77 493.77 541.5 497.72 545.84"/>
    <polygon class="cls-4" points="495.8 540.47 498.53 542.46 499.17 538.75 495.8 540.47"/>
    <polygon class="cls-4" points="493.37 535.77 494.08 538.8 496.79 538.26 493.37 535.77"/>
    <polygon class="cls-4" points="524.13 541.69 530.43 543.99 522.35 533.29 529.85 537.09 523.85 530.41 518.59 530.97 522.72 536.49 517.81 536.87 526.32 540.15 524.13 541.69"/>
    <polygon class="cls-4" points="521.92 540.71 513.91 537.59 517.51 541.26 515.34 544.48 520.25 544.09 518.04 543.1 518.87 541.41 521.92 540.71"/>
    <polygon class="cls-4" points="520.4 541.9 523.8 542.71 522.45 543.4 520.4 541.9"/>
    <polygon class="cls-4" points="531.88 536.06 528.8 534.23 534.53 530.47 531.88 536.06"/>
    <polygon class="cls-4" points="534.16 527.27 532.5 530.66 529.1 529.85 528.11 532.89 524.86 529.89 531.8 528.48 534.16 527.27"/>
    <polygon class="cls-4" points="529.58 527.49 521.97 529.25 514.28 524.27 522.97 527.89 529.58 527.49"/>
    <polygon class="cls-4" points="518.75 529.62 508.68 523.32 507.61 535.29 509.94 530.72 509.55 525.84 514.17 529.83 518.75 529.62"/>
    <polygon class="cls-4" points="511.97 529.69 514.91 535.38 516.08 533.52 518.97 535.01 517.07 531.32 514.54 532.19 511.97 529.69"/>
    <polygon class="cls-4" points="503.35 532.81 505.74 534.13 501.38 523.22 503.35 532.81"/>
    <polygon class="cls-4" points="500.77 529.46 495.09 521.77 499.19 524.76 499.31 519.2 500.77 529.46"/>
    <polygon class="cls-4" points="505.87 530.25 499.43 514.48 503.57 521.68 504.37 516.62 504.96 524.37 506.93 518.28 506.17 526.71 506.9 532.26 505.87 530.25"/>
    <polygon class="cls-4" points="508.14 520.63 523.12 525.7 516.3 522.4 510.79 514.2 511.86 519.58 508.14 520.63"/>
    <polygon class="cls-4" points="509.65 518.59 503.83 513.93 507.88 511.87 509.65 518.59"/>
    <polygon class="cls-4" points="501.65 516.31 504.98 509.54 497.71 511.97 500.43 513.12 501.65 516.31"/>
    <polygon class="cls-4" points="498.1 533.37 490.66 518.95 491.95 529.72 493.98 528.69 498.1 533.37"/>
    <polygon class="cls-4" points="496.41 534.23 493.49 531.05 491.81 531.91 487.51 526.06 487.9 531.78 496.41 534.23"/>
    <polygon class="cls-4" points="487.62 537.01 487.41 533.3 483.47 528.96 487.62 537.01"/>
    <polygon class="cls-4" points="485.85 529.45 481.17 520.39 486.96 522.53 485.85 529.45"/>
    <polygon class="cls-4" points="513.51 515.35 506.09 502.62 514.49 511.46 513.51 515.35"/>
    <polygon class="cls-4" points="515.05 515.84 518.67 522.04 515.08 519.21 515.05 515.84"/>
    <polygon class="cls-4" points="507 508.51 502.4 507.04 498.54 510.28 501.19 503.85 505.43 503.81 504.09 506.18 507 508.51"/>
    <polygon class="cls-4" points="496.54 513.84 486.32 509.73 497.29 521.07 496.54 513.84"/>
    <polygon class="cls-4" points="488.23 514.26 489.17 522.67 486 511.58 488.23 514.26"/>
    <polygon class="cls-4" points="483.03 519.87 486.4 517.31 480.26 514.51 483.03 519.87"/>
    <polygon class="cls-4" points="483.3 512.96 485.01 513.78 483.92 507.56 483.3 512.96"/>
    <polygon class="cls-4" points="480.58 512.65 481.02 505.23 483.23 506.22 480.58 512.65"/>
    <path class="cls-4" d="M511.88,504.75c-.52-1-9.28-11.36-9.28-11.36l-8.14,16.43,3.44-12.33-4-6.87,6.28.61L511.84,484l-3.3,9.3Z"/>
    <polygon class="cls-4" points="494.23 503.58 494.47 494.15 484.17 498.13 492.65 498.88 494.23 503.58"/>
    <polygon class="cls-4" points="491.33 502.1 493.43 507.8 487.5 508.71 487.63 504.83 489.68 506.32 489.31 503.13 492.06 506.81 491.33 502.1"/>
    <polygon class="cls-4" points="490.32 502.61 490.12 499.75 481.81 499.33 488.27 501.12 490.32 502.61"/>
    <polygon class="cls-4" points="487.19 503.57 481.49 501.19 484.53 504.92 487.19 503.57"/>
    <polygon class="cls-4" points="514.97 508.26 511.63 496.84 514.48 493.27 514.97 508.26"/>
    <polygon class="cls-4" points="516.78 502.68 520.46 498.26 516.55 497.29 516.78 502.68"/>
    <polygon class="cls-4" points="516.36 495.27 516.79 487.01 510.75 493.48 519.27 481.09 516.36 495.27"/>
    <polygon class="cls-4" points="513.55 485.7 522.25 474.49 516.22 480.95 521.72 471.8 515.53 480.45 512.28 477.45 514.2 482.83 513.55 485.7"/>
    <polygon class="cls-4" points="482.79 496.29 491.57 492.66 487.59 484.95 489.19 492.18 482.79 496.29"/>
    <polygon class="cls-4" points="484.46 493.74 484.94 490.54 487.12 488.15 487.49 491.35 484.46 493.74"/>
    <polygon class="cls-4" points="492.38 488.44 489.26 482.4 499.67 488.53 492.38 488.44"/>
    <polygon class="cls-4" points="496.4 483.85 503.06 487.66 500.13 483.64 502.63 479.4 498.6 483.15 493.33 482.03 496.4 483.85"/>
    <polygon class="cls-4" points="497.89 480.13 490.27 481.05 496.34 477.95 498.82 472.03 497.89 480.13"/>
    <polygon class="cls-4" points="499.58 480.11 503.7 468.27 504.64 476.69 499.58 480.11"/>
    <polygon class="cls-4" points="502.16 483.45 503.67 481.42 505.43 487.3 502.16 483.45"/>
    <polygon class="cls-4" points="505.73 483.75 511.46 480.83 507.11 486.44 505.73 483.75"/>
    <polygon class="cls-4" points="505.54 481.73 507.67 474.3 514.1 473.56 509.21 476.47 510.6 479.16 507.37 478.68 505.54 481.73"/>
    <polygon class="cls-4" points="505.78 472.3 514.22 468 505.39 467.42 508.97 469.4 505.78 472.3"/>
    <polygon class="cls-4" points="510.02 472.25 525.05 465.87 517.83 473.35 515.11 472.2 510.02 472.25"/>
    <polygon class="cls-4" points="521.63 479.89 532.9 486.85 526.89 480.17 521.63 479.89"/>
    <polygon class="cls-4" points="524.46 491.15 520.97 481.92 518.39 495.08 521.04 488.65 524.46 491.15"/>
    <polygon class="cls-4" points="523.01 482.57 527.54 493.81 527.14 488.09 523.01 482.57"/>
    <polygon class="cls-4" points="527.96 485.55 538.89 492.69 529.91 493.45 527.96 485.55"/>
    <polygon class="cls-4" points="522.65 496.72 519.93 495.57 521.92 491.17 521.79 495.05 522.65 496.72"/>
    <polygon class="cls-4" points="523.46 492.5 524 496.04 526.36 494.83 523.46 492.5"/>
    <polygon class="cls-4" points="536.28 485.97 530.97 480.63 535.73 481.6 544.49 476.29 536.28 485.97"/>
    <polygon class="cls-4" points="535.62 488 540.74 491.32 539.01 487.97 535.62 488"/>
    <polygon class="cls-4" points="537.98 485.95 542.67 481.02 542.71 484.39 537.98 485.95"/>
    <polygon class="cls-4" points="540.87 487.44 542.6 490.79 544.92 485.38 540.87 487.44"/>
    <polygon class="cls-4" points="545.07 483.19 544.68 478.31 548.05 476.59 545.07 483.19"/>
    <polygon class="cls-4" points="546.19 476.27 549.37 472.53 548.21 475.24 546.19 476.27"/>
    <polygon class="cls-4" points="547.85 472.88 553.03 465.58 548.16 470.18 547.85 472.88"/>
    <polygon class="cls-4" points="546.33 474.08 546.56 462.95 542.78 474.62 546.33 474.08"/>
    <polygon class="cls-4" points="542.28 476.14 536.04 479.74 537.7 475.51 542.28 476.14"/>
    <polygon class="cls-4" points="533.16 479.1 538.11 466.41 528.06 478.31 533.16 479.1"/>
    <polygon class="cls-4" points="526.19 477.99 521.61 478.2 525.14 475.13 526.19 477.99"/>
    <polygon class="cls-4" points="527.7 475.95 524.91 468.9 530.38 472.89 527.7 475.95"/>
    <polygon class="cls-4" points="531.55 471.02 526.42 466.87 532.36 467.65 524.34 462.84 543.5 461.98 533.35 464.61 534.74 468.13 531.02 469.18 531.55 471.02"/>
    <polygon class="cls-4" points="540.13 464.54 545.03 462.46 542.53 467.54 540.13 464.54"/>
    <polygon class="cls-4" points="539.83 468.08 537.51 473.49 542.25 472.77 540.37 471.61 539.83 468.08"/>
    <polygon class="cls-4" points="511.98 465.33 519.46 466.6 517.04 462.75 511.98 465.33"/>
    <polygon class="cls-4" points="519.07 461.72 524.15 460.82 521.15 465.74 519.07 461.72"/>
    <polygon class="cls-4" points="553.25 470.13 570.52 484.61 560.19 469.56 553.25 470.13"/>
    <polygon class="cls-4" points="553.74 468.61 555.07 466.24 558.83 468.56 553.74 468.61"/>
    <polygon class="cls-4" points="566.01 474.21 573.78 487.61 576.49 487.92 566.01 474.21"/>
    <polygon class="cls-4" points="543.3 492.13 551.73 471.33 576.03 491.97 553.84 478.72 543.3 492.13"/>
    <polygon class="cls-4" points="547.38 490.14 554.1 482.4 564.36 487.12 554.18 484.95 547.38 490.14"/>
  </g>
  <g id="shapos3">
    <polygon class="cls-5" points="542.31 461 556.56 448.51 557.67 459.71 542.31 461"/>
    <polygon class="cls-5" points="541.77 452.11 591.57 403.09 556.93 409.88 544.94 438.22 527.55 458.03 541.77 452.11"/>
    <polygon class="cls-5" points="560.66 445.05 600.12 404.29 610.63 443.54 596.91 424.75 581.73 430.08 563.47 466.5 560.66 445.05"/>
    <polygon class="cls-5" points="589.1 433.21 581.68 480.11 578.93 445.52 589.1 433.21"/>
    <polygon class="cls-5" points="594.15 433.62 588.33 473.57 603.72 465.72 596.76 457.58 594.15 433.62"/>
    <polygon class="cls-5" points="602.61 454.51 600.73 440.21 621.79 468.7 602.61 454.51"/>
    <polygon class="cls-5" points="611.1 468.85 586.15 481.48 613.53 488.75 598.99 479.99 611.1 468.85"/>
    <polygon class="cls-5" points="567.91 474.44 573.26 452.64 576.98 487.81 567.91 474.44"/>
    <polygon class="cls-5" points="581.83 490.73 597.75 495.05 589.76 499.46 581.83 490.73"/>
    <polygon class="cls-5" points="602.8 495.46 631.98 493.28 613.97 477.16 650.43 497.81 602.8 495.46"/>
    <polygon class="cls-5" points="632.63 479.18 631.16 459.86 615.65 450.52 615.36 429.27 633.54 449.44 620.36 442.81 623.82 450.17 648.67 457.24 634.83 464.71 642.38 471.89 634.42 469.73 646.2 487.36 632.63 479.18"/>
    <polygon class="cls-5" points="613.37 397.78 609.55 425.77 625.45 393.2 613.37 397.78"/>
    <polygon class="cls-5" points="606.87 405.17 603.42 399.73 595.73 398.46 611.27 395.2 606.41 399 606.87 405.17"/>
    <polygon class="cls-5" points="627.2 433.77 635.13 442.5 631.2 409.84 628.41 425.28 614.22 424.63 627.2 433.77"/>
    <polygon class="cls-5" points="640.15 449.47 660.92 456.72 644.35 466.49 674.73 455.81 640.15 449.47"/>
    <polygon class="cls-5" points="641.15 443.49 636.11 399.63 643.98 421.49 641.15 443.49"/>
    <polygon class="cls-5" points="623.18 420.81 617.85 417.6 631.13 399.26 623.18 420.81"/>
    <polygon class="cls-5" points="650.73 432.14 648.15 445.07 671.65 450.01 652.44 442.38 650.73 432.14"/>
    <polygon class="cls-5" points="662.25 442.37 660.15 433.86 669.3 445.17 662.25 442.37"/>
    <polygon class="cls-5" points="656.73 439.7 645.39 410.49 658.34 426.19 656.73 439.7"/>
    <polygon class="cls-5" points="645.47 477.7 651.34 468.07 662.18 478.55 682.39 480.19 657.86 487.8 654.98 479.48 645.47 477.7"/>
    <polygon class="cls-5" points="663.18 472.56 656.6 465.97 675.46 465.47 663.18 472.56"/>
    <polygon class="cls-5" points="670.17 474.14 677.2 469.15 675.61 476.1 670.17 474.14"/>
    <polygon class="cls-5" points="600.04 504.33 621.34 523.74 622.99 503.67 639.49 550.48 600.04 504.33"/>
    <polygon class="cls-5" points="630.92 512.39 640.5 501.04 664.97 506.56 643.96 508.4 636.11 523.43 637.14 510.88 630.92 512.39"/>
    <polygon class="cls-5" points="639.12 539.73 643.68 527.32 675.8 556.14 639.12 539.73"/>
    <polygon class="cls-5" points="672.07 525.33 643.31 522.49 653.27 512.69 658.29 519.67 672.07 525.33"/>
    <polygon class="cls-5" points="580.97 507.33 595.19 501.41 582.97 538.82 587.38 509.87 580.97 507.33"/>
    <polygon class="cls-5" points="579.94 519.88 579.17 560.24 570.68 545.91 579.94 519.88"/>
    <polygon class="cls-5" points="597.28 513.2 588.81 535.76 599.15 527.5 617.4 534.54 598.8 519.39 597.28 513.2"/>
    <polygon class="cls-5" points="602.51 517.67 596.34 506.05 612.96 526.6 602.51 517.67"/>
    <polygon class="cls-5" points="598.92 536.58 623.18 544.61 653.03 565.22 623.88 560.84 617.72 549.22 598.92 536.58"/>
    <polygon class="cls-5" points="648.59 557.28 642.22 548.18 647.27 548.59 648.59 557.28"/>
    <polygon class="cls-5" points="651.15 550.92 659.25 563.71 651.5 559.03 651.15 550.92"/>
    <polygon class="cls-5" points="657.55 553.46 669.92 570.13 666.48 556.21 657.55 553.46"/>
    <polygon class="cls-5" points="670.95 557.58 674.44 558.37 672.27 566.28 670.95 557.58"/>
    <polygon class="cls-5" points="664.84 532.83 678.38 547.57 673.77 535.58 681.59 527.11 664.84 532.83"/>
    <polygon class="cls-5" points="662.2 515.43 661.65 509.83 676.8 511.06 662.2 515.43"/>
    <polygon class="cls-5" points="668.02 518.94 676.98 515.12 679.27 524.4 668.02 518.94"/>
    <polygon class="cls-5" points="683.38 517.66 675.72 493.29 681.01 484.62 683.38 517.66"/>
    <polygon class="cls-5" points="673.72 505.25 669.11 493.26 660.36 494.57 667.73 497.69 673.72 505.25"/>
    <polygon class="cls-5" points="665.45 501.43 655.49 502.17 653.54 494.26 643.4 490.85 650.17 490.88 649.21 483.56 660.52 491.72 654.35 490.7 657.9 498.23 665.45 501.43"/>
    <polygon class="cls-5" points="589.16 543.87 595.21 581.76 561.15 631.04 596.7 594.51 618.12 587.66 618.59 569.5 605.11 585.09 600.67 577.15 589.16 543.87"/>
    <polygon class="cls-5" points="611.68 569.49 609.68 558.87 629.18 570.62 607.21 549.01 595.17 544.9 611.68 569.49"/>
    <polygon class="cls-5" points="585.05 550.62 577.9 581.87 586.83 584.62 583.19 573.2 585.05 550.62"/>
    <polygon class="cls-5" points="612.64 511.92 609.59 499.55 619.08 507.9 614.02 507.49 612.64 511.92"/>
    <polygon class="cls-5" points="624.79 574.55 643.21 585.65 630.58 584.62 625.99 609.52 624.79 574.55"/>
    <polygon class="cls-5" points="630.46 567.43 639.16 579.26 665.63 572.81 630.46 567.43"/>
    <polygon class="cls-5" points="644.97 582.76 666.18 578.42 654.87 586.09 643.29 609.4 649.41 590.7 644.97 582.76"/>
    <polygon class="cls-5" points="635.39 594.11 643.97 588.74 636.65 615.94 635.39 594.11"/>
    <polygon class="cls-5" points="630.69 601.81 626.1 626.71 631.22 613.98 630.69 601.81"/>
    <polygon class="cls-5" points="583.77 615.7 600.96 598.39 619.32 622.62 601.9 605.54 583.77 615.7"/>
    <polygon class="cls-5" points="606.6 597.84 618 613.92 616.29 603.68 621.41 590.96 610.48 600.17 606.6 597.84"/>
    <polygon class="cls-5" points="600.69 614.04 620.25 629.77 569.31 630.69 600.69 614.04"/>
    <polygon class="cls-5" points="609.91 638.03 526.13 636.29 555.97 656.9 548.45 643.15 609.91 638.03"/>
    <polygon class="cls-5" points="558.35 646.48 562.2 655.38 563.2 649.4 573.72 645.2 558.35 646.48"/>
    <polygon class="cls-5" points="568.63 651.36 567.84 654.83 591.61 644.12 568.63 651.36"/>
    <polygon class="cls-5" points="501.48 626.71 553.77 627.92 569.64 601.92 548.16 621.9 501.48 626.71"/>
    <polygon class="cls-5" points="515.52 616.73 525.25 616 520.82 608.07 540.41 617.23 514.27 594.9 515.56 610.16 503.69 612.23 515.52 616.73"/>
    <polygon class="cls-5" points="510.65 620.38 480.77 606.33 498.01 619.35 478.54 627.38 510.65 620.38"/>
    <polygon class="cls-5" points="527.13 630.3 513.05 646.85 497.51 644.07 505.74 630.59 512.32 637.19 527.13 630.3"/>
    <polygon class="cls-5" points="522.77 646.12 544.1 658.97 521.19 653.07 497.65 654.7 522.77 646.12"/>
    <polygon class="cls-5" points="501.18 648.92 477.27 649 463.73 634.26 477.3 642.43 469.19 629.65 484.29 644.01 501.18 648.92"/>
    <polygon class="cls-5" points="487.82 638.23 497.92 639.05 493.69 628.61 487.82 638.23"/>
    <polygon class="cls-5" points="474.25 630.06 480.82 636.66 486.88 631.08 474.25 630.06"/>
    <polygon class="cls-5" points="561.89 597.25 581.54 593.28 544.09 578.62 569.18 576.62 543.36 568.96 530.87 578.56 550.08 586.18 538.18 594.82 565.03 589.92 561.89 597.25"/>
    <polygon class="cls-5" points="554.69 598.18 529.39 602.7 544.35 606.44 543.9 618.02 555.8 609.39 548.61 610.32 548.05 604.71 554.69 598.18"/>
    <polygon class="cls-5" points="552.72 603.58 562.65 600.34 560.3 604.19 552.72 603.58"/>
    <polygon class="cls-5" points="572.71 570.84 562.01 570.98 570.65 552.48 572.71 570.84"/>
    <polygon class="cls-5" points="564.66 544.92 565.77 556.13 555.84 559.36 558.13 568.64 545.12 566.07 560.55 551.66 564.66 544.92"/>
    <polygon class="cls-5" points="553.35 552.59 536.75 568.93 509.34 568.23 537.16 563.91 553.35 552.59"/>
    <polygon class="cls-5" points="529.14 574.88 493.56 574.53 509.74 606.66 508.45 591.4 499.76 579.58 517.82 582.56 529.14 574.88"/>
    <polygon class="cls-5" points="511.98 585.62 528.46 595.55 528.49 588.98 538.21 588.25 527.55 581.83 522.46 587.99 511.98 585.62"/>
    <polygon class="cls-5" points="494.96 606.98 503.13 606.63 474.84 585.64 494.96 606.98"/>
    <polygon class="cls-5" points="483.12 602.48 456.54 591.74 471.7 592.97 463.21 578.63 483.12 602.48"/>
    <polygon class="cls-5" points="497.34 596.56 456.07 566.43 477.99 578.32 472.03 564.19 485.74 582.99 481.16 564.43 492.53 587.08 503.16 600.07 497.34 596.56"/>
    <polygon class="cls-5" points="487.95 568.51 534.08 558.1 511.51 560.32 484.55 548.02 495.77 560.05 487.95 568.51"/>
    <polygon class="cls-5" points="488.57 560.98 466.42 558.18 473.47 546.62 488.57 560.98"/>
    <polygon class="cls-5" points="464.62 567.63 462.39 545.22 447.73 562.73 456.49 561.41 464.62 567.63"/>
    <polygon class="cls-5" points="482.47 616.58 440.79 591.47 461.09 616.87 464.61 611.09 482.47 616.58"/>
    <polygon class="cls-5" points="479.54 621.39 467.11 617.86 464.17 622.67 443.99 614.47 454.03 628.42 479.54 621.39"/>
    <polygon class="cls-5" points="461.55 642.17 455.18 633.06 438.29 628.15 461.55 642.17"/>
    <polygon class="cls-5" points="445.1 625.68 418.93 609.91 437.03 606.33 445.1 625.68"/>
    <polygon class="cls-5" points="493.3 546.71 454.32 525.87 489.66 535.3 493.3 546.71"/>
    <polygon class="cls-5" points="497.97 545.58 516.98 555.71 503.38 554.1 497.97 545.58"/>
    <polygon class="cls-5" points="465.92 539.44 451.91 542.85 447.18 557.12 443.77 536.63 454.5 529.92 454.85 538.04 465.92 539.44"/>
    <polygon class="cls-5" points="447.7 569.29 415.21 574.74 461.04 586.54 447.7 569.29"/>
    <polygon class="cls-5" points="427.22 583.3 442.88 603.26 417.32 579.97 427.22 583.3"/>
    <polygon class="cls-5" points="422.84 605.68 427.37 593.92 407.33 596.34 422.84 605.68"/>
    <polygon class="cls-5" points="412.62 587.67 418.26 587.12 405.69 572.96 412.62 587.67"/>
    <polygon class="cls-5" points="405.21 591.11 394.61 571.56 401.81 570.63 405.21 591.11"/>
    <path class="cls-5" d="M472.42,522.28c-2.91-1.75-41.54-14.48-41.54-14.48l5.19,54.49-10.72-36.75-20.94-11.3,17-8.23,18.25-36.42,6.28,28.81Z"/>
    <polygon class="cls-5" points="425.64 546.79 411.37 522.38 391.42 548.56 414.22 537.27 425.64 546.79"/>
    <polygon class="cls-5" points="415.92 547.51 430.25 558.78 416.59 570.31 410.8 560.24 418.38 560.85 412.39 553.29 425.2 558.37 415.92 547.51"/>
    <polygon class="cls-5" points="414.15 550.4 409.13 543.43 387.3 555.3 406.58 549.79 414.15 550.4"/>
    <polygon class="cls-5" points="407.7 557.71 389.42 560.52 403.08 565.29 407.7 557.71"/>
    <polygon class="cls-5" points="485.81 526.4 459.29 502.52 460.91 489.01 485.81 526.4"/>
    <polygon class="cls-5" points="481.62 509.38 484.03 492.4 472.54 496.02 481.62 509.38"/>
    <polygon class="cls-5" points="468.87 491.17 456.92 469.48 451.74 495.34 453.9 450.54 468.87 491.17"/>
    <polygon class="cls-5" points="446.61 471.17 451.08 429.09 445.9 454.95 445.47 423.08 443.38 454.74 430.36 452.17 443.73 462.86 446.61 471.17"/>
    <polygon class="cls-5" points="385.01 546.02 401.65 523.11 379.35 509.68 394.83 525.59 385.01 546.02"/>
    <polygon class="cls-5" points="385.25 536.94 381.4 528.04 383.2 518.59 389.19 526.14 385.25 536.94"/>
    <polygon class="cls-5" points="397.04 511.12 379.59 500.61 415.75 500 397.04 511.12"/>
    <polygon class="cls-5" points="400.04 493.17 422.98 492.5 409.2 486.84 408.88 472.16 404.53 487.98 389.34 493.31 400.04 493.17"/>
    <polygon class="cls-5" points="397.95 481.38 380 495.59 390.58 478.25 387.56 459.31 397.95 481.38"/>
    <polygon class="cls-5" points="402.24 478.69 394.06 442.15 409.71 462.12 402.24 478.69"/>
    <polygon class="cls-5" points="414.08 483.19 414.7 475.66 428.45 487.89 414.08 483.19"/>
    <polygon class="cls-5" points="423.63 478.41 433.62 462.04 431.38 483.08 423.63 478.41"/>
    <polygon class="cls-5" points="419.96 473.56 413.65 451.32 428.87 439.42 421.02 454.45 428.78 459.12 419.81 462.94 419.96 473.56"/>
    <polygon class="cls-5" points="405.69 449.16 420.38 425.09 396.99 437.34 409.24 436.82 405.69 449.16"/>
    <polygon class="cls-5" points="416.41 442.45 444.59 402.8 438.04 433.09 429.28 434.4 416.41 442.45"/>
    <polygon class="cls-5" points="458.01 443.8 497.67 443.99 471.85 436.33 458.01 443.8"/>
    <polygon class="cls-5" points="482.98 468.06 459.54 449.99 473.75 487.52 470.34 467.04 482.98 468.06"/>
    <polygon class="cls-5" points="465.76 448.47 495.02 470.05 484.98 456.09 465.76 448.47"/>
    <polygon class="cls-5" points="483.07 448.36 522.14 449.51 500.49 465.44 483.07 448.36"/>
    <polygon class="cls-5" points="487.17 485.07 478.42 486.39 476.54 472.09 482.33 482.15 487.17 485.07"/>
    <polygon class="cls-5" points="482.56 473.08 489.52 481.22 493.64 474.48 482.56 473.08"/>
    <polygon class="cls-5" points="504.9 436.49 482.95 431.17 496.59 426.21 510.52 399.05 504.9 436.49"/>
    <polygon class="cls-5" points="506.43 442.67 524.7 443.14 515.01 437.31 506.43 442.67"/>
    <polygon class="cls-5" points="509.19 433.8 513.37 413.93 518.77 422.45 509.19 433.8"/>
    <polygon class="cls-5" points="518.91 433.07 528.61 438.91 525.97 421.52 518.91 433.07"/>
    <polygon class="cls-5" points="522.88 415.71 514.19 403.89 520.07 394.26 522.88 415.71"/>
    <polygon class="cls-5" points="514.81 396.36 517.02 381.89 518.34 390.58 514.81 396.36"/>
    <polygon class="cls-5" points="513.7 385.15 515.38 358.51 510.23 377.8 513.7 385.15"/>
    <polygon class="cls-5" points="511.73 390.55 494.75 361.89 503.53 397.47 511.73 390.55"/>
    <polygon class="cls-5" points="504.67 402.11 494.47 420.99 492.01 407.65 504.67 402.11"/>
    <polygon class="cls-5" points="486.1 423.85 478.71 383.83 471.88 429.77 486.1 423.85"/>
    <polygon class="cls-5" points="466.62 431.87 455.31 439.54 459.45 426.23 466.62 431.87"/>
    <polygon class="cls-5" points="467.24 424.34 449.03 410.73 469.24 412.37 467.24 424.34"/>
    <polygon class="cls-5" points="469.27 405.81 449.65 403.2 466.01 395.94 438.01 396.2 485.41 364.16 463.72 386.66 472.83 393.46 465.01 401.92 469.27 405.81"/>
    <polygon class="cls-5" points="480.88 375.92 490.08 363.03 491.75 379.84 480.88 375.92"/>
    <polygon class="cls-5" points="485.7 385.41 488.34 402.81 499.27 393.58 492.66 393.55 485.7 385.41"/>
    <polygon class="cls-5" points="410.48 421.76 431.52 413.36 419.3 407.31 410.48 421.76"/>
    <polygon class="cls-5" points="422.82 401.54 434.34 391.35 434.46 408.54 422.82 401.54"/>
    <polygon class="cls-5" points="523.1 369.75 589.93 379.71 539.88 357.46 523.1 369.75"/>
    <polygon class="cls-5" points="521.96 365.11 521.6 356.99 534.82 357.05 521.96 365.11"/>
    <polygon class="cls-5" points="562.03 360.27 602.95 382.28 610.35 378.84 562.03 360.27"/>
    <polygon class="cls-5" points="532.49 441.25 521.13 375.14 615.55 389.87 538.17 390.68 532.49 441.25"/>
    <polygon class="cls-5" points="539.75 429.82 544.62 399.65 578.19 395.69 548.86 406.02 539.75 429.82"/>
  </g>
  <g id="shapos4">
    <polygon class="cls-6" points="427.21 396.27 419.89 336.11 451.75 353.57 427.21 396.27"/>
    <polygon class="cls-6" points="402.57 381.52 362.68 161.51 317.75 264.86 371.37 347.91 392.46 429.65 402.57 381.52"/>
    <polygon class="cls-6" points="418.14 319.05 381.43 141.23 505.04 185.03 430.05 186.87 416.63 236.48 480.37 350.68 418.14 319.05"/>
    <polygon class="cls-6" points="438.36 222.8 549.71 327.58 452.64 271.91 438.36 222.8"/>
    <polygon class="cls-6" points="448.64 210.27 544.39 298.25 551.51 243.53 517.17 247 448.64 210.27"/>
    <polygon class="cls-6" points="519.65 226.07 478.17 204.99 592.31 201.49 519.65 226.07"/>
    <polygon class="cls-6" points="573.24 229.84 561.49 318.35 630.65 259.66 580.89 281.92 573.24 229.84"/>
    <polygon class="cls-6" points="509.57 353.47 461.27 299.76 561.66 353.95 509.57 353.47"/>
    <polygon class="cls-6" points="578.25 346.53 618.73 312.57 615.91 341.57 578.25 346.53"/>
    <polygon class="cls-6" points="629.01 300.04 676.27 219.43 600.62 237.42 721.88 179.2 629.01 300.04"/>
    <polygon class="cls-6" points="639.93 192.08 585.83 160.78 532.75 184.53 475.66 146.64 562.43 135.57 520.79 158.17 546.68 162.44 610.7 110.01 605.41 159.95 638.26 153.19 618.02 170.17 686.38 171.3 639.93 192.08"/>
    <polygon class="cls-6" points="388.21 94.59 455.76 155.55 397.99 54.53 388.21 94.59"/>
    <polygon class="cls-6" points="396.06 125.1 375.29 124.27 357.91 142.17 377.5 95.41 378.78 115.1 396.06 125.1"/>
    <polygon class="cls-6" points="509.17 123.72 546.83 118.77 452.75 69.68 488.76 105.11 461.23 141.21 509.17 123.72"/>
    <polygon class="cls-6" points="574.54 118.27 631.6 76.88 627.47 138.19 654.32 38.97 574.54 118.27"/>
    <polygon class="cls-6" points="560.43 104.75 434.49 38.21 506.99 57.3 560.43 104.75"/>
    <polygon class="cls-6" points="467.36 110.72 449.11 118.88 424.44 50.63 467.36 110.72"/>
    <polygon class="cls-6" points="547.64 58.94 577.35 89.26 633.24 36.5 578.01 73.11 547.64 58.94"/>
    <polygon class="cls-6" points="595.84 47.29 569.37 37.33 616.09 33.87 595.84 47.29"/>
    <polygon class="cls-6" points="578.67 56.95 480.28 33.58 545.64 28.12 578.67 56.95"/>
    <polygon class="cls-6" points="659.33 155.65 644.39 122.69 692 113.29 733.13 63.17 708.76 141.47 681.39 133.89 659.33 155.65"/>
    <polygon class="cls-6" points="677.89 99.78 648.36 105.06 681.36 54.62 677.89 99.78"/>
    <polygon class="cls-6" points="694.81 84.28 694.3 56.76 709.9 73.56 694.81 84.28"/>
    <polygon class="cls-6" points="647.6 323.44 738.01 302.81 687.56 261.95 842.2 303.77 647.6 323.44"/>
    <polygon class="cls-6" points="725.22 256.99 712.43 211.18 771.65 156.94 738.32 215.46 764.05 263.41 732.52 237.87 725.22 256.99"/>
    <polygon class="cls-6" points="812.91 285.16 788.18 250.63 923.34 218.66 812.91 285.16"/>
    <polygon class="cls-6" points="834.53 172.41 774.66 242.81 766.68 198.8 794.39 198.3 834.53 172.41"/>
    <polygon class="cls-6" points="620.9 378.99 631.01 330.86 708.35 431.04 639.31 366.79 620.9 378.99"/>
    <polygon class="cls-6" points="652.43 404.52 758.47 479.98 704.88 476.2 652.43 404.52"/>
    <polygon class="cls-6" points="666.18 346.83 710.83 410.11 707.67 367.92 759.59 332.8 685.43 354.08 666.18 346.83"/>
    <polygon class="cls-6" points="687.59 341.23 645.44 336.29 730.39 330 687.59 341.23"/>
    <polygon class="cls-6" points="731.4 385.05 796.92 335.92 906.07 295.01 841.39 363.6 799.25 358.66 731.4 385.05"/>
    <polygon class="cls-6" points="876.87 292.22 841.04 292.4 851.32 279.87 876.87 292.22"/>
    <polygon class="cls-6" points="864.59 273.93 913.37 275.89 886.83 287.77 864.59 273.93"/>
    <polygon class="cls-6" points="883 261.73 949.86 259.57 906.56 243.26 883 261.73"/>
    <polygon class="cls-6" points="918.33 234.03 926.79 226.28 943.89 246.38 918.33 234.03"/>
    <polygon class="cls-6" points="841.34 205.04 905.22 196.29 864.9 186.58 856.59 150.65 841.34 205.04"/>
    <polygon class="cls-6" points="790.24 180.34 774.31 171.61 805.15 134.02 790.24 180.34"/>
    <polygon class="cls-6" points="810.14 171.43 816.27 140.94 845.14 151.81 810.14 171.43"/>
    <polygon class="cls-6" points="834.68 128.74 755.87 104.53 742.42 74.87 834.68 128.74"/>
    <polygon class="cls-6" points="784.08 131.55 743.76 121.84 731.33 147.23 753.06 133.54 784.08 131.55"/>
    <polygon class="cls-6" points="758.86 146.33 742.73 173.84 718.1 164.57 690.59 184.99 702.98 167.27 681.75 156.48 724.03 141.62 710.11 155.96 736.61 160.34 758.86 146.33"/>
    <polygon class="cls-6" points="733.07 423.95 844.91 476.99 914.14 656.12 881.58 496.26 902.3 427.52 854.84 393.26 871.78 457.04 842.58 454.24 733.07 423.95"/>
    <polygon class="cls-6" points="842.22 411.38 810.3 397.32 877.06 367.46 779.57 385.89 746.71 410.03 842.22 411.38"/>
    <polygon class="cls-6" points="743.53 447.02 813.73 522.65 837.28 504.18 800.28 492.99 743.53 447.02"/>
    <polygon class="cls-6" points="690.73 304.14 652.23 289.65 691.72 279.91 681.43 292.44 690.73 304.14"/>
    <polygon class="cls-6" points="879.55 386.16 942.59 357.96 916.89 389.28 974.8 446.62 879.55 386.16"/>
    <polygon class="cls-6" points="870.92 358.31 918.2 356.98 949.2 275.72 870.92 358.31"/>
    <polygon class="cls-6" points="938.11 348.07 965.13 284.45 964.98 328.12 1005.98 400.96 967.31 350.87 938.11 348.07"/>
    <polygon class="cls-6" points="950.9 393.89 952.22 361.58 1011.3 430.3 950.9 393.89"/>
    <polygon class="cls-6" points="962.85 420.26 1020.77 477.59 996.21 441.01 962.85 420.26"/>
    <polygon class="cls-6" points="914.45 568.77 899.66 492.13 997.55 487.98 920.4 502.68 914.45 568.77"/>
    <polygon class="cls-6" points="908.45 476.31 971.99 475.63 941.63 461.46 917.06 424.88 921.72 470.37 908.45 476.31"/>
    <polygon class="cls-6" points="940.82 521.29 1018.29 498.53 928.07 634.03 940.82 521.29"/>
    <polygon class="cls-6" points="1021.45 540.72 864.4 757.66 973.56 716.75 923.28 711.49 1021.45 540.72"/>
    <polygon class="cls-6" points="950.16 691.54 980.85 697.63 966.75 684.12 974.7 648.85 950.16 691.54"/>
    <polygon class="cls-6" points="981.84 673.4 989.64 681.81 1004.38 599.89 981.84 673.4"/>
    <polygon class="cls-6" points="794.07 804.98 892.41 669.8 852.07 580.82 866.2 673.6 794.07 804.98"/>
    <polygon class="cls-6" points="793.06 749.93 808.81 723.06 779.61 720.27 839.66 685.48 732.66 713.52 775.63 737.9 759.55 772.85 793.06 749.93"/>
    <polygon class="cls-6" points="793.89 769.38 702.16 822.31 768.19 800.7 754.1 866.47 793.89 769.38"/>
    <polygon class="cls-6" points="850.29 744.15 868.73 811.22 833.07 847 812.15 800.85 841.68 795.57 850.29 744.15"/>
    <polygon class="cls-6" points="884.48 784.35 957.47 751.7 900.08 801.16 861.61 865.94 884.48 784.35"/>
    <polygon class="cls-6" points="852.65 846.17 809.36 909.14 745.49 917.89 791.94 897.11 743.16 895.15 808.86 881.61 852.65 846.17"/>
    <polygon class="cls-6" points="799.89 861.84 820.46 836.78 784.95 828.88 799.89 861.84"/>
    <polygon class="cls-6" points="753.45 882.62 782.98 877.34 779.15 851.3 753.45 882.62"/>
    <polygon class="cls-6" points="825.53 592.69 850.73 533.85 743.58 605.57 783.87 536.01 716.53 589.92 719.36 640.19 774.6 603.58 775.94 650.55 811.75 571.1 825.53 592.69"/>
    <polygon class="cls-6" points="814.92 613.29 780.93 687.97 818.08 655.49 848.12 677.73 846.78 630.76 836.16 651.36 820.24 642.63 814.92 613.29"/>
    <polygon class="cls-6" points="825.71 628.29 835.15 596.31 841.13 609.5 825.71 628.29"/>
    <polygon class="cls-6" points="774.9 516.23 755.83 544.59 722.3 488.23 774.9 516.23"/>
    <polygon class="cls-6" points="691.28 490.21 723.14 507.68 713.69 539.65 742.56 550.52 712.04 580.03 701.74 513.29 691.28 490.21"/>
    <polygon class="cls-6" points="691.13 533.89 704.42 607.23 652.68 677.95 691.81 597.01 691.13 533.89"/>
    <polygon class="cls-6" points="706.42 638.05 640.75 730.86 755.73 746.81 712.75 722.43 665.47 723.76 706.27 681.72 706.42 638.05"/>
    <polygon class="cls-6" points="703.78 702.66 760.19 677.42 742.76 665.4 758.52 638.53 722.02 654.86 729.16 679.41 703.78 702.66"/>
    <polygon class="cls-6" points="729.69 786.21 743.62 764.12 636.29 800.25 729.69 786.21"/>
    <polygon class="cls-6" points="696.18 809.13 619.22 859.42 650.07 821.83 596.48 818.06 696.18 809.13"/>
    <polygon class="cls-6" points="706.29 761 551.02 814.61 622.51 778.66 574.06 768.62 649.05 766.78 591.31 745.05 672.28 756.39 726.2 752.09 706.29 761"/>
    <polygon class="cls-6" points="614.54 734.66 670.74 594.55 635.58 657.85 553.8 706.33 606.23 698.73 614.54 734.66"/>
    <polygon class="cls-6" points="595.62 719.33 547.85 772.42 529.92 732.87 595.62 719.33"/>
    <polygon class="cls-6" points="569.76 794.33 506.04 759.41 525.97 829.78 538.4 804.39 569.76 794.33"/>
    <polygon class="cls-6" points="732.53 836.48 589.86 900.3 694.38 893.18 685.42 873.41 732.53 836.48"/>
    <polygon class="cls-6" points="740 852.96 707.99 879.17 715.46 895.65 656.9 933.74 712.31 932.73 740 852.96"/>
    <polygon class="cls-6" points="762.59 937.99 726.75 938.17 682.96 973.62 762.59 937.99"/>
    <polygon class="cls-6" points="688.76 951.2 599.18 991.27 622.56 937.21 688.76 951.2"/>
    <polygon class="cls-6" points="566.24 680.94 439.84 745.42 529.24 669.74 566.24 680.94"/>
    <polygon class="cls-6" points="571.71 666.6 633.25 635.1 604.23 667.91 571.71 666.6"/>
    <polygon class="cls-6" points="497.07 739.63 480.66 782.65 510.04 821.05 449.31 792.72 450.95 752.34 473.19 766.18 497.07 739.63"/>
    <polygon class="cls-6" points="543.39 841.8 498.79 937.08 613.57 838.16 543.39 841.8"/>
    <polygon class="cls-6" points="543.42 921.08 625.04 916.28 516.54 941.03 543.42 921.08"/>
    <polygon class="cls-6" points="595.03 973.31 571.96 940.03 541.95 997.06 595.03 973.31"/>
    <polygon class="cls-6" points="528.5 967.4 537.29 951.57 476.73 958.84 528.5 967.4"/>
    <polygon class="cls-6" points="524.19 993.11 452.85 985.38 463.46 964.78 524.19 993.11"/>
    <path class="cls-6" d="M463.21,691.35c-10,4.45-114.12,82.77-114.12,82.77l154.49,85.49-117.31-38.7-68.18,34.47,8.94-59.5-63.74-114.2,88.11,35.9Z"/>
    <polygon class="cls-6" points="443.36 858.81 352.44 851.91 385.81 951.95 397.24 871.51 443.36 858.81"/>
    <polygon class="cls-6" points="427.6 885.68 483.67 868.52 489.5 925.38 452.17 922.26 467.59 903.47 436.57 905.45 473.39 881.05 427.6 885.68"/>
    <polygon class="cls-6" points="432.08 895.57 404.38 896.07 396.27 975.02 416.66 914.36 432.08 895.57"/>
    <polygon class="cls-6" points="439.81 925.81 414.02 978.97 451.57 951.76 439.81 925.81"/>
    <polygon class="cls-6" points="498.55 663.65 386.73 689.89 353.71 661.06 498.55 663.65"/>
    <polygon class="cls-6" points="445.61 643.73 404.79 606.49 393.52 643.25 445.61 643.73"/>
    <polygon class="cls-6" points="373.94 644.08 294.47 636.02 353.88 696.66 238.55 609.51 373.94 644.08"/>
    <polygon class="cls-6" points="280.21 666.19 176.33 577.88 235.74 638.51 150.11 581.68 230.6 644.78 200.08 674.29 252.83 658.62 280.21 666.19"/>
    <polygon class="cls-6" points="367.4 964.15 336.68 878.78 260.37 912.92 330.88 901.2 367.4 964.15"/>
    <polygon class="cls-6" points="343.67 947.01 312.98 940.92 291.07 919.01 322.09 917.02 343.67 947.01"/>
    <polygon class="cls-6" points="296.36 869.07 236.64 895.79 300.82 799.68 296.36 869.07"/>
    <polygon class="cls-6" points="254.04 828.54 294.01 767.05 253.87 792.94 214.21 767.08 248.4 807.28 234.97 856.89 254.04 828.54"/>
    <polygon class="cls-6" points="218.87 812.56 224.03 885.57 197.14 826.25 141.22 799.73 218.87 812.56"/>
    <polygon class="cls-6" points="219.53 796.41 107.36 751.45 188.98 746.65 219.53 796.41"/>
    <polygon class="cls-6" points="253.03 773.49 234.12 758.17 291.68 744.31 253.03 773.49"/>
    <polygon class="cls-6" points="257.67 739.7 232.27 683.67 284.21 727.83 257.67 739.7"/>
    <polygon class="cls-6" points="238.09 740.53 167.41 716.66 163.41 655.02 189.14 702.97 215.68 691.1 209.55 721.59 238.09 740.53"/>
    <polygon class="cls-6" points="147.17 733.64 109.82 651.24 99.89 734.97 120.78 701.84 147.17 733.64"/>
    <polygon class="cls-6" points="148.82 693.26 94.52 547.08 163.23 619.42 150.79 644.8 148.82 693.26"/>
    <polygon class="cls-6" points="228.09 586.44 300.73 482.58 233.39 536.5 228.09 586.44"/>
    <polygon class="cls-6" points="338.08 564.98 247.34 593.68 373.11 624.63 312.38 596.3 338.08 564.98"/>
    <polygon class="cls-6" points="254.63 574.56 365.28 536.95 309.87 537.96 254.63 574.56"/>
    <polygon class="cls-6" points="285.81 528.9 359.94 428.34 362.95 514.21 285.81 528.9"/>
    <polygon class="cls-6" points="391.01 584.9 378.58 610.29 337.09 589.21 374.43 592.33 391.01 584.9"/>
    <polygon class="cls-6" points="350.69 575.19 385.04 571.72 374.58 548.65 350.69 575.19"/>
    <polygon class="cls-6" points="293.92 449.95 239.84 497.93 251.44 453.1 204.47 367.08 293.92 449.95"/>
    <polygon class="cls-6" points="313.17 457.2 347.66 410.05 314.48 424.89 313.17 457.2"/>
    <polygon class="cls-6" points="294.58 433.8 249.27 386.68 281.79 387.99 294.58 433.8"/>
    <polygon class="cls-6" points="310.33 406.93 343.51 392.09 292.4 367.38 310.33 406.93"/>
    <polygon class="cls-6" points="271.33 364.91 224.04 366.25 209.1 333.29 271.33 364.91"/>
    <polygon class="cls-6" points="205.13 350.92 170.61 318.8 196.16 331.15 205.13 350.92"/>
    <polygon class="cls-6" points="173.27 333.46 105.39 280.58 147.38 329.19 173.27 333.46"/>
    <polygon class="cls-6" points="184.06 348.46 76.88 340.91 187.55 382.57 184.06 348.46"/>
    <polygon class="cls-6" points="201.99 388.01 233.69 449.14 193.7 431.36 201.99 388.01"/>
    <polygon class="cls-6" points="226.07 476.34 106.1 422.98 215.96 524.47 226.07 476.34"/>
    <polygon class="cls-6" points="211.99 542.11 211.83 585.78 183.95 550.68 211.99 542.11"/>
    <polygon class="cls-6" points="193.07 526.78 123.72 549.88 164.85 499.76 193.07 526.78"/>
    <polygon class="cls-6" points="147.43 487.74 104.81 534.55 115.24 478.35 64.99 552.37 65.94 369.59 86.37 467.48 121.04 455.94 129.35 491.86 147.43 487.74"/>
    <polygon class="cls-6" points="89.01 402.87 71.41 355.25 119.19 381.44 89.01 402.87"/>
    <polygon class="cls-6" points="123.02 407.48 174.13 432.19 169.47 386.7 157.36 404.01 123.02 407.48"/>
    <polygon class="cls-6" points="82.95 671.19 98.85 600.65 60.53 621.75 82.95 671.19"/>
    <polygon class="cls-6" points="51.57 601.98 45.42 553.2 91.38 584.17 51.57 601.98"/>
    <polygon class="cls-6" points="149.36 280.73 297.47 123.29 147.19 214.31 149.36 280.73"/>
    <polygon class="cls-6" points="134.93 275.3 112.69 261.46 136.9 226.84 134.93 275.3"/>
    <polygon class="cls-6" points="194.95 161.23 327.99 93.78 332.3 68.07 194.95 161.23"/>
    <polygon class="cls-6" points="356.78 386.15 160.15 295.73 371.12 74.48 232.48 279.22 356.78 386.15"/>
    <polygon class="cls-6" points="339.57 346.28 268.12 278.61 318.64 183.19 292.79 279.07 339.57 346.28"/>
  </g>
  <g id="Layer_12" data-name="Layer 12">
    <polygon class="cls-7" points="75.09 277.19 156.05 133 109.55 53.66 75.09 277.19"/>
    <polygon class="cls-7" points="670.62 17.04 836.51 91.1 817.87 45.74 747.04 33.7 728.4 7.78 670.62 17.04"/>
    <polygon class="cls-7" points="753.56 16.11 909.2 7.78 922.25 42.03 753.56 16.11"/>
    <polygon class="cls-7" points="851.42 49.44 883.11 134.62 935.3 97.58 851.42 49.44"/>
    <polygon class="cls-7" points="947.37 87 998.94 49.84 1014.95 171.3 947.37 87"/>
    <polygon class="cls-7" points="893.36 147.58 931.57 188.31 920.39 146.65 893.36 147.58"/>
    <polygon class="cls-7" points="913.86 129.99 935.3 114.25 996.81 198.5 942.75 174.43 932.5 134.62 913.86 129.99"/>
    <polygon class="cls-7" points="948.35 198.5 1010.79 222.57 985.63 236.46 986.56 290.15 948.35 198.5"/>
    <polygon class="cls-7" points="1002.4 254.05 1002.4 332.74 1023.84 278.12 1002.4 254.05"/>
    <polygon class="cls-7" points="40.6 674.37 101.18 837.32 184.13 863.24 55.51 920.64 40.6 674.37"/>
    <polygon class="cls-7" points="11.71 964.15 161.76 899.35 66.7 983.6 11.71 964.15"/>
    <polygon class="cls-7" points="191.58 889.16 161.76 964.15 259.62 940.08 205.56 926.2 191.58 889.16"/>
    <polygon class="cls-7" points="145.92 936.38 103.05 972.49 136.6 998.41 145.92 936.38"/>
    <polygon class="cls-7" points="180.4 979.89 281.98 956.75 372.39 978.97 180.4 979.89"/>
    <polygon class="cls-7" points="665.96 998.41 813.21 933.6 813.21 972.49 665.96 998.41"/>
    <polygon class="cls-7" points="836.51 936.38 953.01 983.6 903.61 936.38 917.59 833.61 836.51 936.38"/>
    <polygon class="cls-7" points="838.37 956.75 896.16 983.6 848.63 1002.11 838.37 956.75"/>
    <polygon class="cls-7" points="935.3 922.49 947.41 798.43 984.69 747.51 935.3 922.49"/>
    <polygon class="cls-7" points="1016.38 641.97 1009.86 766.95 969.78 897.5 1035.02 797.5 1016.38 641.97"/>
    <polygon class="cls-7" points="948.35 929.9 1026.63 1002.11 996.81 933.6 1009.86 886.38 948.35 929.9"/>
    <polygon class="cls-7" points="903.61 57.77 935.3 58.7 967.92 7.78 967.92 49.44 931.57 79.99 903.61 57.77"/>
    <polygon class="cls-7" points="980.97 37.4 979.1 17.04 1049 17.04 980.97 37.4"/>
    <polygon class="cls-7" points="163.92 66.08 127.28 8.66 252.16 49.25 163.92 66.08"/>
    <polygon class="cls-7" points="171.08 131.84 138.46 79.99 273.6 54.07 171.08 131.84"/>
    <polygon class="cls-7" points="246.57 84.62 326.72 22.59 315.54 57.77 246.57 84.62"/>
    <polygon class="cls-7" points="132.87 67.96 93.72 5 132.87 37.4 132.87 67.96"/>
    <polygon class="cls-7" points="84.41 97.58 60.17 236.46 15.44 167.02 55.51 151.28 84.41 97.58"/>
    <polygon class="cls-7" points="22.89 147.58 66.7 114.25 22.89 57.77 40.6 110.54 22.89 147.58"/>
    <polygon class="cls-7" points="54.58 75.36 72.29 97.58 90 69.81 54.58 75.36"/>
    <polygon class="cls-7" points="22.89 210.53 55.51 262.38 62.97 313.3 35.94 285.52 35.94 254.05 22.89 210.53"/>
    <polygon class="cls-7" points="40.6 311.45 62.97 333.67 45.26 373.48 40.6 311.45"/>
    <polygon class="cls-7" points="45.26 385.51 45.26 472.54 30.35 431.1 45.26 385.51"/>
    <polygon class="cls-7" points="30.35 574.38 37.81 629 22.89 616.04 30.35 574.38"/>
    <polygon class="cls-7" points="22.89 627.15 37.81 640.12 40.6 663.26 22.89 627.15"/>
    <polygon class="cls-7" points="1010.79 352.18 1029.43 311.45 1023.84 443.84 1010.79 352.18"/>
    <polygon class="cls-7" points="1035.02 405.88 1029.43 516.05 1043.41 487.35 1035.02 405.88"/>
    <polygon class="cls-7" points="1043.41 520.68 1020.11 572.53 1036.88 594.75 1043.41 520.68"/>
    <polygon class="cls-7" points="1020.11 594.75 1035.95 616.04 1016.38 635.49 1020.11 594.75"/>
    <polygon class="cls-7" points="32.22 461.43 45.26 495.69 37.81 524.39 32.22 461.43"/>
    <polygon class="cls-7" points="26.62 498.46 32.22 560.5 19.17 511.43 26.62 498.46"/>
    <polygon class="cls-7" points="328.58 50.37 337.9 16.11 384.5 38.33 328.58 50.37"/>
    <polygon class="cls-7" points="363.07 20.2 383.84 29.07 399.41 15.13 363.07 20.2"/>
    <polygon class="cls-7" points="433.9 29.07 448.81 15.18 500.07 22.59 433.9 29.07"/>
    <polygon class="cls-7" points="482.36 15.18 531.75 20.74 538.28 12.41 482.36 15.18"/>
    <polygon class="cls-7" points="540.14 19.81 547.6 7.78 589.54 21.66 540.14 19.81"/>
    <polygon class="cls-7" points="576.49 12.41 609.11 22.59 615.63 10.55 576.49 12.41"/>
    <polygon class="cls-7" points="619.36 15.18 614.7 24.44 662.23 17.96 619.36 15.18"/>
    <polygon class="cls-7" points="347.22 991.93 417.12 991.93 460.92 998.41 409.67 1002.11 347.22 991.93"/>
    <polygon class="cls-8" points="448.81 1005.82 498.2 1002.11 502.86 1012.3 448.81 1005.82"/>
    <polygon class="cls-8" points="505.66 1002.11 513.11 1016 528.03 1006.74 505.66 1002.11"/>
    <polygon class="cls-7" points="527.09 1015.07 543.87 1004.89 588.6 999.34 527.09 1015.07"/>
    <polygon class="cls-7" points="570.9 1008.59 632.41 991 625.88 1003.04 570.9 1008.59"/>
    <polygon class="cls-7" points="638 996.56 632.41 1008.59 660.37 999.34 638 996.56"/>
    <polygon class="cls-7" points="419.92 32.77 411.53 16.11 434.83 18.89 419.92 32.77"/>
    <polygon class="cls-7" points="401.28 21.66 390.09 32.77 411.53 35.55 400.35 29.07 401.28 21.66"/>
  </g>
</svg>
