<svg xmlns="http://www.w3.org/2000/svg" viewBox="0 0 1024 1024">
  <defs>
    <style>
      .cls-1 {
        fill: #fff;
      }

      .cls-1, .cls-5, .cls-6 {
        stroke: #231f20;
      }

      .cls-1, .cls-10, .cls-11, .cls-2, .cls-3, .cls-4, .cls-5, .cls-6, .cls-7 {
        stroke-miterlimit: 10;
      }

      .cls-11, .cls-2, .cls-3, .cls-4, .cls-5, .cls-6, .cls-7 {
        fill: none;
      }

      .cls-2, .cls-3, .cls-4, .cls-7 {
        stroke: #000;
      }

      .cls-11, .cls-2 {
        stroke-width: 2px;
      }

      .cls-3 {
        stroke-width: 10px;
      }

      .cls-6 {
        stroke-width: 3px;
      }

      .cls-7 {
        stroke-width: 23px;
      }

      .cls-8 {
        fill: #e5e5e5;
      }

      .cls-9 {
        fill: #9fd3a2;
      }

      .cls-10 {
        fill: #e1d71e;
        stroke: #e7db19;
      }

      .cls-11 {
        stroke: #b82025;
      }
    </style>
  </defs>
  <title>101717_animateTo</title>
  <g id="back">
    <rect class="cls-1" width="1024" height="1024"/>
  </g>
  <g id="lines">
    <line id="line1" class="cls-2" x1="17.88" y1="61.74" x2="282.86" y2="301.11"/>
    <line id="line6" class="cls-3" x1="348.78" y1="601.17" x2="94.12" y2="988.95"/>
    <line id="line8" class="cls-2" x1="480.73" y1="556.19" x2="997.05" y2="613.81"/>
    <line id="line10" class="cls-2" x1="182.68" y1="537.72" x2="82.64" y2="839"/>
    <line id="line11" class="cls-2" x1="480.73" y1="976.41" x2="353.69" y2="709.82"/>
    <line id="line13" class="cls-4" x1="784.37" y1="670.87" x2="958.5" y2="848.25"/>
    <line id="line9" class="cls-3" x1="829.48" y1="386.52" x2="954.79" y2="515.08"/>
    <line id="line2" class="cls-5" x1="383.08" y1="354.66" x2="410.08" y2="39.68"/>
    <line id="line3" class="cls-5" x1="499.97" y1="245.71" x2="703.96" y2="65.71"/>
    <line id="line4" class="cls-6" x1="718.13" y1="499.14" x2="665.99" y2="241.1"/>
    <line id="line5" class="cls-5" x1="63.66" y1="322.35" x2="201.66" y2="427.11"/>
    <line id="line7" class="cls-5" x1="284.85" y1="404.59" x2="373.34" y2="482.58"/>
    <line id="line12" class="cls-7" x1="810.67" y1="867.51" x2="625.59" y2="939.28"/>
  </g>
  <g id="circles">
    <circle id="circle2" class="cls-8" cx="860.78" cy="197.78" r="79.63"/>
    <circle id="circle4" class="cls-9" cx="585.07" cy="748.74" r="40.52"/>
    <circle id="cirle1" class="cls-10" cx="242.2" cy="103.34" r="25.79"/>
    <circle id="circle3" class="cls-11" cx="516.13" cy="401.39" r="16.17"/>
  </g>
</svg>
