<svg xmlns="http://www.w3.org/2000/svg" viewBox="0 0 1024 1024">
  <defs>
    <style>
      .cls-1 {
        fill: #fff;
      }

      .cls-11, .cls-2, .cls-3, .cls-4, .cls-5, .cls-6, .cls-7 {
        fill: none;
      }

      .cls-2, .cls-3, .cls-4, .cls-7 {
        stroke: #000;
      }

      .cls-10, .cls-11, .cls-2, .cls-3, .cls-4, .cls-5, .cls-6, .cls-7 {
        stroke-miterlimit: 10;
      }

      .cls-11, .cls-2 {
        stroke-width: 2px;
      }

      .cls-3 {
        stroke-width: 10px;
      }

      .cls-5, .cls-6 {
        stroke: #231f20;
      }

      .cls-6 {
        stroke-width: 3px;
      }

      .cls-7 {
        stroke-width: 23px;
      }

      .cls-8 {
        fill: #e5e5e5;
      }

      .cls-9 {
        fill: #9fd3a2;
      }

      .cls-10 {
        fill: #e1d71e;
        stroke: #e7db19;
      }

      .cls-11 {
        stroke: #b82025;
      }
    </style>
  </defs>
  <title>101717</title>
  <g id="back">
    <rect class="cls-1" width="1024" height="1024"/>
  </g>
  <g id="lines">
    <line id="line1" class="cls-2" x1="61.1" y1="336.04" x2="239.64" y2="26.8"/>
    <line id="line6" class="cls-3" x1="213.83" y1="299.75" x2="291.94" y2="757.06"/>
    <line id="line8" class="cls-2" x1="495.76" y1="616.75" x2="975.85" y2="418.21"/>
    <line id="line10" class="cls-2" x1="66.13" y1="779.5" x2="315.12" y2="976.41"/>
    <line id="line11" class="cls-2" x1="564.53" y1="688.36" x2="411.62" y2="941"/>
    <line id="line13" class="cls-4" x1="794.55" y1="789.26" x2="968.68" y2="966.65"/>
    <line id="line9" class="cls-3" x1="829.48" y1="574.44" x2="954.79" y2="703.01"/>
    <line id="line2" class="cls-5" x1="383.08" y1="463.09" x2="410.08" y2="148.1"/>
    <line id="line3" class="cls-5" x1="488.08" y1="241.1" x2="692.07" y2="61.11"/>
    <line id="line4" class="cls-6" x1="881.62" y1="305.59" x2="829.48" y2="47.55"/>
    <line id="line5" class="cls-5" x1="44.1" y1="512" x2="182.09" y2="616.75"/>
    <line id="line7" class="cls-5" x1="488.08" y1="404.59" x2="576.57" y2="482.58"/>
    <line id="line12" class="cls-7" x1="728.79" y1="934.89" x2="540.55" y2="871.89"/>
  </g>
  <g id="circles">
    <circle id="circle2" class="cls-8" cx="681.57" cy="305.59" r="79.63"/>
    <circle id="circle4" class="cls-9" cx="706.51" cy="688.36" r="40.52"/>
    <circle id="circle1" class="cls-10" cx="416.23" cy="77.55" r="25.79"/>
    <circle id="circle3" class="cls-11" cx="380.56" cy="585" r="16.17"/>
  </g>
</svg>
