<svg xmlns="http://www.w3.org/2000/svg" viewBox="0 0 1024 1024">
  <defs>
    <style>
      .cls-1 {
        fill: #ffe4b9;
      }

      .cls-2 {
        fill: #dbae00;
      }

      .cls-3 {
        fill: #1b1464;
      }

      .cls-4 {
        fill: #89ff73;
      }

      .cls-5 {
        fill: #fff;
      }

      .cls-6, .cls-8 {
        fill: #2eb7ff;
      }

      .cls-7 {
        fill: #8a2300;
      }

      .cls-8 {
        stroke: #fff;
        stroke-miterlimit: 10;
        stroke-width: 3px;
      }

      .cls-9 {
        fill: #ff5f45;
      }
    </style>
  </defs>
  <title>102417</title>
  <g id="background">
    <rect class="cls-1" width="1024" height="1024"/>
  </g>
  <g id="design">
    <polygon class="cls-2" points="559.98 426.9 463.64 426.9 415.48 510.33 463.64 593.76 559.98 593.76 608.14 510.33 559.98 426.9"/>
    <polygon class="cls-3" points="559.98 257.47 463.64 257.47 415.48 340.9 463.64 424.32 559.98 424.32 608.14 340.9 559.98 257.47"/>
    <polygon class="cls-3" points="412.9 342.62 316.57 342.62 268.4 425.81 316.57 509 412.9 509 461.07 425.81 412.9 342.62"/>
    <polygon class="cls-3" points="707.05 342.62 610.72 342.62 562.55 425.81 610.72 509 707.05 509 755.22 425.81 707.05 342.62"/>
    <polygon class="cls-3" points="559.98 596.34 463.64 596.34 415.48 679.76 463.64 763.19 559.98 763.19 608.14 679.76 559.98 596.34"/>
    <polygon class="cls-3" points="707.05 511.19 610.72 511.19 562.55 594.62 610.72 678.04 707.05 678.04 755.22 594.62 707.05 511.19"/>
    <polygon class="cls-3" points="412.9 511 316.57 511 268.4 594.52 316.57 678.04 412.9 678.04 461.07 594.52 412.9 511"/>
    <polygon class="cls-4" points="707.05 680.63 610.72 680.63 562.55 764.05 610.72 847.48 707.05 847.48 755.22 764.05 707.05 680.63"/>
    <polygon class="cls-4" points="412.9 680.63 316.57 680.63 268.4 764.05 316.57 847.48 412.9 847.48 461.07 764.05 412.9 680.63"/>
    <polygon class="cls-4" points="412.9 173 316.57 173 268.4 256.43 316.57 339.85 412.9 339.85 461.07 256.43 412.9 173"/>
    <polygon class="cls-4" points="706.9 173 610.57 173 562.4 256.43 610.57 339.85 706.9 339.85 755.07 256.43 706.9 173"/>
    <polygon class="cls-4" points="854.12 597.2 757.79 597.2 709.62 680.63 757.79 764.05 854.12 764.05 902.29 680.63 854.12 597.2"/>
    <polygon class="cls-4" points="265.83 597.2 169.5 597.2 121.33 680.63 169.5 764.05 265.83 764.05 314 680.63 265.83 597.2"/>
    <polygon class="cls-5" points="512.06 36 464.51 254.12 559.61 254.12 512.06 36"/>
    <polygon class="cls-2" points="658.88 933.63 707.05 850.21 610.72 850.21 658.88 933.63"/>
    <polygon class="cls-2" points="364.74 933.63 412.9 850.21 316.57 850.21 364.74 933.63"/>
    <polygon class="cls-5" points="44.03 240.95 266.48 422.86 312.79 342.65 44.03 240.95"/>
    <polygon class="cls-5" points="980.18 239.87 755.87 422.86 709.56 342.65 980.18 239.87"/>
    <polygon class="cls-6" points="93.27 610.24 118.09 679.24 165.44 597.23 93.27 610.24"/>
    <polygon class="cls-6" points="930.44 610.24 905.62 679.24 858.27 597.23 930.44 610.24"/>
    <g>
      <path class="cls-7" d="M217.66,727.29A49.24,49.24,0,1,1,266.91,678,49.3,49.3,0,0,1,217.66,727.29Z"/>
      <path class="cls-5" d="M217.66,630.3A47.74,47.74,0,1,1,169.92,678a47.8,47.8,0,0,1,47.74-47.74m0-3A50.74,50.74,0,1,0,268.41,678a50.74,50.74,0,0,0-50.74-50.74Z"/>
    </g>
    <circle class="cls-8" cx="662.66" cy="254.04" r="33.04"/>
    <circle class="cls-8" cx="361.66" cy="254.04" r="33.04"/>
    <g>
      <path class="cls-7" d="M806,729.87a49.24,49.24,0,1,1,49.24-49.25A49.3,49.3,0,0,1,806,729.87Z"/>
      <path class="cls-5" d="M806,632.88a47.74,47.74,0,1,1-47.74,47.74A47.8,47.8,0,0,1,806,632.88m0-3a50.74,50.74,0,1,0,50.74,50.74A50.74,50.74,0,0,0,806,629.88Z"/>
    </g>
    <g>
      <path class="cls-9" d="M511.81,562.15a49.24,49.24,0,1,1,49.24-49.24A49.3,49.3,0,0,1,511.81,562.15Z"/>
      <path class="cls-5" d="M511.81,465.17a47.74,47.74,0,1,1-47.74,47.74,47.8,47.8,0,0,1,47.74-47.74m0-3a50.74,50.74,0,1,0,50.74,50.74,50.74,50.74,0,0,0-50.74-50.74Z"/>
    </g>
    <polygon class="cls-5" points="511.5 980 464 765 559 765 511.5 980"/>
    <polygon class="cls-6" points="219.6 511.48 266.66 592.99 313.72 511.48 219.6 511.48"/>
    <polygon class="cls-6" points="709.27 511.54 756.27 592.94 803.26 511.54 709.27 511.54"/>
    <polygon class="cls-9" points="756.61 427.89 709.78 509 803.44 509 756.61 427.89"/>
    <polygon class="cls-9" points="266.57 427.89 219.74 509 313.39 509 266.57 427.89"/>
    <polygon class="cls-9" points="903.39 115.41 757.63 254.24 710.29 172.23 903.39 115.41"/>
    <polygon class="cls-2" points="364.79 56.29 412.14 170 317.44 170 364.79 56.29"/>
    <polygon class="cls-2" points="658.79 56.29 706.14 170 611.44 170 658.79 56.29"/>
    <polygon class="cls-9" points="118.29 115.41 264.05 254.24 311.39 172.23 118.29 115.41"/>
  </g>
</svg>
