<svg xmlns="http://www.w3.org/2000/svg" viewBox="0 0 1024 1024">
  <defs>
    <style>
      .cls-1 {
        fill: #393434;
      }

      .cls-2, .cls-3, .cls-4, .cls-5 {
        fill: none;
        stroke-miterlimit: 10;
        stroke-width: 2px;
      }

      .cls-2 {
        stroke: #eeff45;
      }

      .cls-3 {
        stroke: #5cb4ff;
      }

      .cls-4 {
        stroke: #ff7117;
      }

      .cls-5 {
        stroke: #b473ff;
      }
    </style>
  </defs>
  <title>112817</title>
  <g id="background">
    <rect class="cls-1" width="1024" height="1024"/>
  </g>
  <g id="Layer_1" data-name="Layer 1">
    <line class="cls-2" x1="164.14" y1="468.03" x2="279.49" y2="217.56"/>
    <line class="cls-2" x1="279.49" y1="217.56" x2="830.54" y2="217.89"/>
    <line class="cls-2" x1="208.56" y1="621.59" x2="308.86" y2="277.35"/>
    <line class="cls-2" x1="308.86" y1="277.35" x2="874" y2="277.77"/>
    <line class="cls-2" x1="127.44" y1="327.02" x2="260.05" y2="173.12"/>
    <line class="cls-2" x1="260.05" y1="173.12" x2="799.63" y2="173.46"/>
    <line class="cls-2" x1="103.29" y1="235.27" x2="245.74" y2="140.13"/>
    <line class="cls-2" x1="245.74" y1="140.13" x2="779.35" y2="139.66"/>
    <line class="cls-2" x1="82.04" y1="157.04" x2="234.9" y2="114.44"/>
    <line class="cls-2" x1="234.9" y1="114.44" x2="760.04" y2="114.55"/>
    <line class="cls-2" x1="269.88" y1="846.14" x2="342.09" y2="349.71"/>
    <line class="cls-2" x1="342.09" y1="349.71" x2="924.22" y2="349.24"/>
    <line class="cls-2" x1="310" y1="992" x2="385.3" y2="445.82"/>
    <line class="cls-2" x1="385.3" y1="445.82" x2="987" y2="445.82"/>
    <line class="cls-2" x1="66.59" y1="98.13" x2="223.05" y2="89.44"/>
    <line class="cls-2" x1="223.05" y1="89.44" x2="742.65" y2="89.44"/>
    <line class="cls-3" x1="987" y1="446" x2="924" y2="349"/>
    <line class="cls-3" x1="874" y1="278" x2="831" y2="218"/>
    <line class="cls-3" x1="800" y1="173" x2="779" y2="140"/>
    <line class="cls-3" x1="760" y1="115" x2="743" y2="89"/>
    <line class="cls-3" x1="82" y1="157" x2="103" y2="235"/>
    <line class="cls-3" x1="127" y1="327" x2="164" y2="468"/>
    <line class="cls-3" x1="209" y1="622" x2="270" y2="846"/>
    <line class="cls-2" x1="55" y1="54" x2="214" y2="69"/>
    <line class="cls-2" x1="214" y1="69" x2="728" y2="69"/>
    <line class="cls-3" x1="55" y1="54" x2="67" y2="98"/>
    <line class="cls-4" x1="310" y1="992" x2="610" y2="598"/>
    <line class="cls-4" x1="610" y1="598" x2="483" y2="520"/>
    <line class="cls-4" x1="483" y1="520" x2="832" y2="520"/>
    <line class="cls-4" x1="832" y1="520" x2="992" y2="770"/>
    <line class="cls-4" x1="992" y1="770" x2="709" y2="598"/>
    <line class="cls-4" x1="709" y1="598" x2="460" y2="935"/>
    <line class="cls-4" x1="460" y1="935" x2="789" y2="753"/>
    <line class="cls-4" x1="789" y1="753" x2="933" y2="827"/>
    <line class="cls-4" x1="933" y1="827" x2="657" y2="969"/>
    <line class="cls-4" x1="657" y1="969" x2="889" y2="969"/>
  </g>
  <g id="GREEN">
    <line class="cls-5" x1="46.92" y1="587" x2="46.92" y2="992"/>
    <line class="cls-5" x1="46.92" y1="992" x2="158" y2="992"/>
    <line class="cls-5" x1="158" y1="992" x2="46.92" y2="587"/>
    <line class="cls-5" x1="867" y1="69" x2="987" y2="69"/>
    <line class="cls-5" x1="985" y1="69" x2="985" y2="250"/>
    <line class="cls-5" x1="985" y1="250" x2="866.76" y2="69"/>
  </g>
</svg>
